M48
; DRILL file {KiCad 8.0.6} date 2024-12-14T14:20:59+0100
; FORMAT={-:-/ absolute / metric / decimal}
; #@! TF.CreationDate,2024-12-14T14:20:59+01:00
; #@! TF.GenerationSoftware,Kicad,Pcbnew,8.0.6
; #@! TF.FileFunction,Plated,1,2,PTH
FMAT,2
METRIC
; #@! TA.AperFunction,Plated,PTH,ViaDrill
T1C0.500
; #@! TA.AperFunction,Plated,PTH,ComponentDrill
T2C0.711
; #@! TA.AperFunction,Plated,PTH,ComponentDrill
T3C1.000
; #@! TA.AperFunction,Plated,PTH,ComponentDrill
T4C1.200
%
G90
G05
T1
X118.2Y-63.775
X120.475Y-63.8
X121.45Y-77.25
X121.525Y-50.25
X123.925Y-52.75
X123.925Y-60.6
X123.925Y-68.65
X123.925Y-76.55
X127.45Y-64.775
X127.475Y-56.825
X127.6Y-72.775
X128.225Y-48.975
X129.05Y-56.825
X129.05Y-64.775
X129.05Y-72.775
X131.625Y-80.475
X134.5Y-80.65
X135.175Y-64.625
X135.2Y-56.7
X135.2Y-72.625
X136.1Y-80.375
X136.3Y-48.8
X136.65Y-64.625
X136.65Y-72.625
X136.8Y-56.725
X140.4Y-52.9
X140.4Y-60.825
X140.4Y-68.825
X140.4Y-76.7
X145.6Y-53.15
X145.954Y-59.346
X149.625Y-82.55
X149.625Y-91.225
X149.95Y-93.3
X150.25Y-103.35
X151.1Y-101.25
X151.7Y-88.9
X152.5Y-82.85
X152.875Y-76.275
X154.725Y-78.05
X155.0Y-112.45
X155.45Y-76.775
X155.872Y-114.678
X156.0Y-69.15
X156.075Y-78.05
X157.075Y-83.325
X157.55Y-70.225
X157.8Y-78.7
X157.8Y-80.1
X157.859Y-68.059
X157.908Y-83.667
X158.05Y-91.15
X158.8Y-84.875
X159.329Y-83.321
X160.95Y-83.0
X161.412Y-59.537
X163.05Y-113.5
X163.15Y-54.4
X164.325Y-57.175
X164.5Y-114.05
X165.425Y-84.725
X165.475Y-53.475
X166.15Y-70.55
X166.2Y-66.15
X166.35Y-73.85
X167.025Y-77.7
X167.8Y-79.25
X167.8Y-82.0
X169.4Y-85.6
X170.225Y-77.75
X171.5Y-89.4
X177.65Y-84.05
T2
X173.525Y-77.185
X173.525Y-82.065
T3
X146.5Y-89.8
X146.5Y-92.34
X146.5Y-94.88
X146.5Y-97.42
X146.5Y-99.96
X146.5Y-102.5
X146.5Y-105.04
X146.5Y-107.58
X154.963Y-86.55
X157.502Y-86.55
X160.042Y-86.55
X162.582Y-86.55
X165.123Y-86.55
T4
X171.857Y-54.767
X171.857Y-58.267
X172.0Y-66.5
X172.0Y-70.0
M30
