%TF.GenerationSoftware,KiCad,Pcbnew,8.0.6*%
%TF.CreationDate,2024-12-14T14:20:07+01:00*%
%TF.ProjectId,PUEE,50554545-2e6b-4696-9361-645f70636258,rev?*%
%TF.SameCoordinates,Original*%
%TF.FileFunction,Copper,L1,Top*%
%TF.FilePolarity,Positive*%
%FSLAX46Y46*%
G04 Gerber Fmt 4.6, Leading zero omitted, Abs format (unit mm)*
G04 Created by KiCad (PCBNEW 8.0.6) date 2024-12-14 14:20:07*
%MOMM*%
%LPD*%
G01*
G04 APERTURE LIST*
G04 Aperture macros list*
%AMRoundRect*
0 Rectangle with rounded corners*
0 $1 Rounding radius*
0 $2 $3 $4 $5 $6 $7 $8 $9 X,Y pos of 4 corners*
0 Add a 4 corners polygon primitive as box body*
4,1,4,$2,$3,$4,$5,$6,$7,$8,$9,$2,$3,0*
0 Add four circle primitives for the rounded corners*
1,1,$1+$1,$2,$3*
1,1,$1+$1,$4,$5*
1,1,$1+$1,$6,$7*
1,1,$1+$1,$8,$9*
0 Add four rect primitives between the rounded corners*
20,1,$1+$1,$2,$3,$4,$5,0*
20,1,$1+$1,$4,$5,$6,$7,0*
20,1,$1+$1,$6,$7,$8,$9,0*
20,1,$1+$1,$8,$9,$2,$3,0*%
G04 Aperture macros list end*
%TA.AperFunction,SMDPad,CuDef*%
%ADD10RoundRect,0.250000X-0.475000X0.250000X-0.475000X-0.250000X0.475000X-0.250000X0.475000X0.250000X0*%
%TD*%
%TA.AperFunction,SMDPad,CuDef*%
%ADD11RoundRect,0.250000X-0.450000X0.262500X-0.450000X-0.262500X0.450000X-0.262500X0.450000X0.262500X0*%
%TD*%
%TA.AperFunction,SMDPad,CuDef*%
%ADD12RoundRect,0.250000X0.475000X-0.250000X0.475000X0.250000X-0.475000X0.250000X-0.475000X-0.250000X0*%
%TD*%
%TA.AperFunction,SMDPad,CuDef*%
%ADD13RoundRect,0.250000X-0.250000X-0.475000X0.250000X-0.475000X0.250000X0.475000X-0.250000X0.475000X0*%
%TD*%
%TA.AperFunction,SMDPad,CuDef*%
%ADD14R,1.000000X1.500000*%
%TD*%
%TA.AperFunction,ComponentPad*%
%ADD15RoundRect,0.250000X-1.550000X0.650000X-1.550000X-0.650000X1.550000X-0.650000X1.550000X0.650000X0*%
%TD*%
%TA.AperFunction,ComponentPad*%
%ADD16O,3.600000X1.800000*%
%TD*%
%TA.AperFunction,SMDPad,CuDef*%
%ADD17RoundRect,0.250000X0.450000X-0.262500X0.450000X0.262500X-0.450000X0.262500X-0.450000X-0.262500X0*%
%TD*%
%TA.AperFunction,SMDPad,CuDef*%
%ADD18RoundRect,0.250000X-0.250000X0.525000X-0.250000X-0.525000X0.250000X-0.525000X0.250000X0.525000X0*%
%TD*%
%TA.AperFunction,SMDPad,CuDef*%
%ADD19RoundRect,0.100000X0.637500X0.100000X-0.637500X0.100000X-0.637500X-0.100000X0.637500X-0.100000X0*%
%TD*%
%TA.AperFunction,SMDPad,CuDef*%
%ADD20RoundRect,0.250000X0.262500X0.450000X-0.262500X0.450000X-0.262500X-0.450000X0.262500X-0.450000X0*%
%TD*%
%TA.AperFunction,SMDPad,CuDef*%
%ADD21R,5.400000X2.900000*%
%TD*%
%TA.AperFunction,ComponentPad*%
%ADD22C,1.219200*%
%TD*%
%TA.AperFunction,ComponentPad*%
%ADD23R,1.700000X1.700000*%
%TD*%
%TA.AperFunction,ComponentPad*%
%ADD24C,1.700000*%
%TD*%
%TA.AperFunction,SMDPad,CuDef*%
%ADD25RoundRect,0.250000X-1.100000X0.325000X-1.100000X-0.325000X1.100000X-0.325000X1.100000X0.325000X0*%
%TD*%
%TA.AperFunction,SMDPad,CuDef*%
%ADD26R,1.000000X2.500000*%
%TD*%
%TA.AperFunction,SMDPad,CuDef*%
%ADD27R,1.800000X1.000000*%
%TD*%
%TA.AperFunction,ComponentPad*%
%ADD28O,1.700000X1.700000*%
%TD*%
%TA.AperFunction,SMDPad,CuDef*%
%ADD29RoundRect,0.250000X0.250000X-0.525000X0.250000X0.525000X-0.250000X0.525000X-0.250000X-0.525000X0*%
%TD*%
%TA.AperFunction,SMDPad,CuDef*%
%ADD30RoundRect,0.150000X-0.825000X-0.150000X0.825000X-0.150000X0.825000X0.150000X-0.825000X0.150000X0*%
%TD*%
%TA.AperFunction,SMDPad,CuDef*%
%ADD31RoundRect,0.225000X-0.225000X-0.250000X0.225000X-0.250000X0.225000X0.250000X-0.225000X0.250000X0*%
%TD*%
%TA.AperFunction,SMDPad,CuDef*%
%ADD32RoundRect,0.150000X0.150000X-0.512500X0.150000X0.512500X-0.150000X0.512500X-0.150000X-0.512500X0*%
%TD*%
%TA.AperFunction,ViaPad*%
%ADD33C,0.750000*%
%TD*%
%TA.AperFunction,Conductor*%
%ADD34C,0.200000*%
%TD*%
%TA.AperFunction,Conductor*%
%ADD35C,0.500000*%
%TD*%
G04 APERTURE END LIST*
D10*
%TO.P,C7,1*%
%TO.N,Net-(U1-PF0)*%
X177500000Y-76892400D03*
%TO.P,C7,2*%
%TO.N,-12V*%
X177500000Y-78792400D03*
%TD*%
D11*
%TO.P,R2,1*%
%TO.N,VDD*%
X169000000Y-90487500D03*
%TO.P,R2,2*%
%TO.N,Net-(U2-~{RST})*%
X169000000Y-92312500D03*
%TD*%
D12*
%TO.P,C22,1*%
%TO.N,Net-(U11-NC)*%
X123925000Y-79610000D03*
%TO.P,C22,2*%
%TO.N,-12V*%
X123925000Y-77710000D03*
%TD*%
D13*
%TO.P,C10,1*%
%TO.N,-12V*%
X159750000Y-92325000D03*
%TO.P,C10,2*%
%TO.N,VDD*%
X161650000Y-92325000D03*
%TD*%
D14*
%TO.P,U11,1,NC*%
%TO.N,Net-(U11-NC)*%
X126625000Y-79125000D03*
%TO.P,U11,2,VDD*%
%TO.N,+12V*%
X128225000Y-79125000D03*
%TO.P,U11,3,DO*%
%TO.N,unconnected-(U11-DO-Pad3)*%
X129825000Y-79125000D03*
%TO.P,U11,4,DI*%
%TO.N,Net-(U10-DO)*%
X129825000Y-74225000D03*
%TO.P,U11,5,GND*%
%TO.N,-12V*%
X128225000Y-74225000D03*
%TO.P,U11,6,BI*%
%TO.N,unconnected-(U11-BI-Pad6)*%
X126625000Y-74225000D03*
%TD*%
D15*
%TO.P,J1,1,Pin_1*%
%TO.N,/CAN_H*%
X172000000Y-66500000D03*
D16*
%TO.P,J1,2,Pin_2*%
%TO.N,/CAN_L*%
X172000000Y-70000000D03*
%TD*%
D17*
%TO.P,R7,1*%
%TO.N,Net-(R7-Pad1)*%
X117650000Y-68012500D03*
%TO.P,R7,2*%
%TO.N,/GPIO_Button2*%
X117650000Y-66187500D03*
%TD*%
%TO.P,R6,1*%
%TO.N,-12V*%
X157000000Y-115262500D03*
%TO.P,R6,2*%
%TO.N,Net-(U2-GPIO15)*%
X157000000Y-113437500D03*
%TD*%
D18*
%TO.P,SW2,1,1*%
%TO.N,VDD*%
X121100000Y-52375000D03*
X121100000Y-57625000D03*
%TO.P,SW2,2,2*%
%TO.N,Net-(R10-Pad2)*%
X117900000Y-52375000D03*
X117900000Y-57625000D03*
%TD*%
D11*
%TO.P,R11,1*%
%TO.N,/CAN_H*%
X167025000Y-67452500D03*
%TO.P,R11,2*%
%TO.N,/CAN_L*%
X167025000Y-69277500D03*
%TD*%
D12*
%TO.P,C21,1*%
%TO.N,Net-(U10-NC)*%
X123925000Y-71710000D03*
%TO.P,C21,2*%
%TO.N,-12V*%
X123925000Y-69810000D03*
%TD*%
D14*
%TO.P,U6,1,NC*%
%TO.N,Net-(U6-NC)*%
X137700000Y-58225000D03*
%TO.P,U6,2,VDD*%
%TO.N,+12V*%
X136100000Y-58225000D03*
%TO.P,U6,3,DO*%
%TO.N,Net-(U6-DO)*%
X134500000Y-58225000D03*
%TO.P,U6,4,DI*%
%TO.N,Net-(U5-DO)*%
X134500000Y-63125000D03*
%TO.P,U6,5,GND*%
%TO.N,-12V*%
X136100000Y-63125000D03*
%TO.P,U6,6,BI*%
%TO.N,unconnected-(U6-BI-Pad6)*%
X137700000Y-63125000D03*
%TD*%
D19*
%TO.P,U1,1,PB8*%
%TO.N,/GPIO_OLED*%
X165375000Y-81950000D03*
%TO.P,U1,2,PF0*%
%TO.N,Net-(U1-PF0)*%
X165375000Y-81300000D03*
%TO.P,U1,3,PF1*%
%TO.N,Net-(U1-PF1)*%
X165375000Y-80650000D03*
%TO.P,U1,4,NRST*%
%TO.N,/NRST*%
X165375000Y-80000000D03*
%TO.P,U1,5,VDDA*%
%TO.N,VDDA*%
X165375000Y-79350000D03*
%TO.P,U1,6,PA0*%
%TO.N,unconnected-(U1-PA0-Pad6)*%
X165375000Y-78700000D03*
%TO.P,U1,7,PA1*%
%TO.N,/GPIO_Button1*%
X165375000Y-78050000D03*
%TO.P,U1,8,PA2*%
%TO.N,/USART2_TX*%
X165375000Y-77400000D03*
%TO.P,U1,9,PA3*%
%TO.N,/USART2_RX*%
X165375000Y-76750000D03*
%TO.P,U1,10,PA4*%
%TO.N,/SPI1_NSS*%
X165375000Y-76100000D03*
%TO.P,U1,11,PA5*%
%TO.N,/SPI1_SCK*%
X159650000Y-76100000D03*
%TO.P,U1,12,PA6*%
%TO.N,/GPIO_LED_RELAY1*%
X159650000Y-76750000D03*
%TO.P,U1,13,PA7*%
%TO.N,/SPI1_MOSI*%
X159650000Y-77400000D03*
%TO.P,U1,14,PB1*%
%TO.N,/GPIO_Button2*%
X159650000Y-78050000D03*
%TO.P,U1,15,VSSA*%
%TO.N,-12V*%
X159650000Y-78700000D03*
%TO.P,U1,16,VDD*%
%TO.N,VDD*%
X159650000Y-79350000D03*
%TO.P,U1,17,PA9/PA11*%
%TO.N,/USART1_TX*%
X159650000Y-80000000D03*
%TO.P,U1,18,PA10/PA12*%
%TO.N,/USART1_RX*%
X159650000Y-80650000D03*
%TO.P,U1,19,PA13*%
%TO.N,/SWDIO*%
X159650000Y-81300000D03*
%TO.P,U1,20,PA14*%
%TO.N,/SWCLK*%
X159650000Y-81950000D03*
%TD*%
D10*
%TO.P,C18,1*%
%TO.N,Net-(U7-NC)*%
X140400000Y-49840000D03*
%TO.P,C18,2*%
%TO.N,-12V*%
X140400000Y-51740000D03*
%TD*%
D13*
%TO.P,C9,1*%
%TO.N,-12V*%
X159750000Y-90125000D03*
%TO.P,C9,2*%
%TO.N,VDD*%
X161650000Y-90125000D03*
%TD*%
D12*
%TO.P,C13,1*%
%TO.N,VDD*%
X121100000Y-68030000D03*
%TO.P,C13,2*%
%TO.N,/GPIO_Button2*%
X121100000Y-66130000D03*
%TD*%
D20*
%TO.P,R9,1*%
%TO.N,-12V*%
X120312500Y-77250000D03*
%TO.P,R9,2*%
%TO.N,Net-(R7-Pad1)*%
X118487500Y-77250000D03*
%TD*%
D15*
%TO.P,J2,1,Pin_1*%
%TO.N,-12V*%
X171857500Y-54767500D03*
D16*
%TO.P,J2,2,Pin_2*%
%TO.N,+12V*%
X171857500Y-58267500D03*
%TD*%
D21*
%TO.P,L1,1,1*%
%TO.N,Net-(U3-SW)*%
X153300000Y-61525000D03*
%TO.P,L1,2,2*%
%TO.N,VDD*%
X153300000Y-51625000D03*
%TD*%
D12*
%TO.P,C19,1*%
%TO.N,Net-(U8-NC)*%
X123925000Y-55810000D03*
%TO.P,C19,2*%
%TO.N,-12V*%
X123925000Y-53910000D03*
%TD*%
D11*
%TO.P,R4,1*%
%TO.N,Net-(U2-GPIO0)*%
X161000000Y-113437500D03*
%TO.P,R4,2*%
%TO.N,VDD*%
X161000000Y-115262500D03*
%TD*%
%TO.P,R5,1*%
%TO.N,Net-(U2-GPIO2)*%
X159000000Y-113437500D03*
%TO.P,R5,2*%
%TO.N,VDD*%
X159000000Y-115262500D03*
%TD*%
D17*
%TO.P,R14,1*%
%TO.N,Net-(Brd1-RES)*%
X150950000Y-99762500D03*
%TO.P,R14,2*%
%TO.N,VDD*%
X150950000Y-97937500D03*
%TD*%
D12*
%TO.P,C12,1*%
%TO.N,Net-(U3-BOOT)*%
X161090000Y-53480000D03*
%TO.P,C12,2*%
%TO.N,Net-(U3-SW)*%
X161090000Y-51580000D03*
%TD*%
D22*
%TO.P,Y2,1,1*%
%TO.N,Net-(C6-Pad1)*%
X173525000Y-82065000D03*
%TO.P,Y2,2,2*%
%TO.N,Net-(U1-PF0)*%
X173525000Y-77184999D03*
%TD*%
D10*
%TO.P,C2,1*%
%TO.N,VDD*%
X156000000Y-79350000D03*
%TO.P,C2,2*%
%TO.N,-12V*%
X156000000Y-81250000D03*
%TD*%
%TO.P,C1,1*%
%TO.N,VDD*%
X153875000Y-79350000D03*
%TO.P,C1,2*%
%TO.N,-12V*%
X153875000Y-81250000D03*
%TD*%
D23*
%TO.P,Brd1,1,GND*%
%TO.N,-12V*%
X146500000Y-89800000D03*
D24*
%TO.P,Brd1,2,VCC*%
%TO.N,VDD*%
X146500000Y-92340000D03*
%TO.P,Brd1,3,D0*%
%TO.N,/SPI1_SCK*%
X146500000Y-94880000D03*
%TO.P,Brd1,4,D1*%
%TO.N,/SPI1_MOSI*%
X146500000Y-97420000D03*
%TO.P,Brd1,5,RES*%
%TO.N,Net-(Brd1-RES)*%
X146500000Y-99960000D03*
%TO.P,Brd1,6,DC*%
%TO.N,/GPIO_OLED*%
X146500000Y-102500000D03*
%TO.P,Brd1,7,CS*%
%TO.N,/SPI1_NSS*%
X146500000Y-105040000D03*
%TO.P,Brd1,8*%
%TO.N,N/C*%
X146500000Y-107580000D03*
%TD*%
D25*
%TO.P,C11,1*%
%TO.N,-12V*%
X166600000Y-55025000D03*
%TO.P,C11,2*%
%TO.N,+12V*%
X166600000Y-57975000D03*
%TD*%
D26*
%TO.P,U2,1,~{RST}*%
%TO.N,Net-(U2-~{RST})*%
X169000000Y-95400000D03*
%TO.P,U2,2,ADC*%
%TO.N,unconnected-(U2-ADC-Pad2)*%
X167000000Y-95400000D03*
%TO.P,U2,3,EN*%
%TO.N,Net-(U2-EN)*%
X165000000Y-95400000D03*
%TO.P,U2,4,GPIO16*%
%TO.N,unconnected-(U2-GPIO16-Pad4)*%
X163000000Y-95400000D03*
%TO.P,U2,5,GPIO14*%
%TO.N,unconnected-(U2-GPIO14-Pad5)*%
X161000000Y-95400000D03*
%TO.P,U2,6,GPIO12*%
%TO.N,unconnected-(U2-GPIO12-Pad6)*%
X159000000Y-95400000D03*
%TO.P,U2,7,GPIO13*%
%TO.N,unconnected-(U2-GPIO13-Pad7)*%
X157000000Y-95400000D03*
%TO.P,U2,8,VCC*%
%TO.N,VDD*%
X155000000Y-95400000D03*
D27*
%TO.P,U2,9,CS0*%
%TO.N,unconnected-(U2-CS0-Pad9)*%
X153500000Y-98000000D03*
%TO.P,U2,10,MISO*%
%TO.N,unconnected-(U2-MISO-Pad10)*%
X153500000Y-100000000D03*
%TO.P,U2,11,GPIO9*%
%TO.N,unconnected-(U2-GPIO9-Pad11)*%
X153500000Y-102000000D03*
%TO.P,U2,12,GPIO10*%
%TO.N,unconnected-(U2-GPIO10-Pad12)*%
X153500000Y-104000000D03*
%TO.P,U2,13,MOSI*%
%TO.N,unconnected-(U2-MOSI-Pad13)*%
X153500000Y-106000000D03*
%TO.P,U2,14,SCLK*%
%TO.N,unconnected-(U2-SCLK-Pad14)*%
X153500000Y-108000000D03*
D26*
%TO.P,U2,15,GND*%
%TO.N,-12V*%
X155000000Y-110600000D03*
%TO.P,U2,16,GPIO15*%
%TO.N,Net-(U2-GPIO15)*%
X157000000Y-110600000D03*
%TO.P,U2,17,GPIO2*%
%TO.N,Net-(U2-GPIO2)*%
X159000000Y-110600000D03*
%TO.P,U2,18,GPIO0*%
%TO.N,Net-(U2-GPIO0)*%
X161000000Y-110600000D03*
%TO.P,U2,19,GPIO4*%
%TO.N,unconnected-(U2-GPIO4-Pad19)*%
X163000000Y-110600000D03*
%TO.P,U2,20,GPIO5*%
%TO.N,unconnected-(U2-GPIO5-Pad20)*%
X165000000Y-110600000D03*
%TO.P,U2,21,GPIO3/RXD*%
%TO.N,/USART1_TX*%
X167000000Y-110600000D03*
%TO.P,U2,22,GPIO1/TXD*%
%TO.N,/USART1_RX*%
X169000000Y-110600000D03*
%TD*%
D10*
%TO.P,C16,1*%
%TO.N,Net-(U5-NC)*%
X140400000Y-65740000D03*
%TO.P,C16,2*%
%TO.N,-12V*%
X140400000Y-67640000D03*
%TD*%
D14*
%TO.P,U8,1,NC*%
%TO.N,Net-(U8-NC)*%
X126625000Y-55325000D03*
%TO.P,U8,2,VDD*%
%TO.N,+12V*%
X128225000Y-55325000D03*
%TO.P,U8,3,DO*%
%TO.N,Net-(U8-DO)*%
X129825000Y-55325000D03*
%TO.P,U8,4,DI*%
%TO.N,Net-(U7-DO)*%
X129825000Y-50425000D03*
%TO.P,U8,5,GND*%
%TO.N,-12V*%
X128225000Y-50425000D03*
%TO.P,U8,6,BI*%
%TO.N,unconnected-(U8-BI-Pad6)*%
X126625000Y-50425000D03*
%TD*%
D20*
%TO.P,R10,1*%
%TO.N,-12V*%
X120412500Y-50250000D03*
%TO.P,R10,2*%
%TO.N,Net-(R10-Pad2)*%
X118587500Y-50250000D03*
%TD*%
D14*
%TO.P,U5,1,NC*%
%TO.N,Net-(U5-NC)*%
X137700000Y-66225000D03*
%TO.P,U5,2,VDD*%
%TO.N,+12V*%
X136100000Y-66225000D03*
%TO.P,U5,3,DO*%
%TO.N,Net-(U5-DO)*%
X134500000Y-66225000D03*
%TO.P,U5,4,DI*%
%TO.N,Net-(U4-DO)*%
X134500000Y-71125000D03*
%TO.P,U5,5,GND*%
%TO.N,-12V*%
X136100000Y-71125000D03*
%TO.P,U5,6,BI*%
%TO.N,unconnected-(U5-BI-Pad6)*%
X137700000Y-71125000D03*
%TD*%
D10*
%TO.P,C17,1*%
%TO.N,Net-(U6-NC)*%
X140400000Y-57740000D03*
%TO.P,C17,2*%
%TO.N,-12V*%
X140400000Y-59640000D03*
%TD*%
D12*
%TO.P,C5,1*%
%TO.N,/NRST*%
X168125000Y-87500000D03*
%TO.P,C5,2*%
%TO.N,-12V*%
X168125000Y-85600000D03*
%TD*%
D17*
%TO.P,R12,1*%
%TO.N,VDD*%
X143625000Y-56525000D03*
%TO.P,R12,2*%
%TO.N,Net-(U3-FB)*%
X143625000Y-54700000D03*
%TD*%
D23*
%TO.P,J7,1,Pin_1*%
%TO.N,VDD*%
X154962500Y-86550000D03*
D28*
%TO.P,J7,2,Pin_2*%
%TO.N,-12V*%
X157502500Y-86550000D03*
%TO.P,J7,3,Pin_3*%
%TO.N,/SWCLK*%
X160042500Y-86550000D03*
%TO.P,J7,4,Pin_4*%
%TO.N,/SWDIO*%
X162582500Y-86550000D03*
%TO.P,J7,5,Pin_5*%
%TO.N,/NRST*%
X165122500Y-86550000D03*
%TD*%
D14*
%TO.P,U7,1,NC*%
%TO.N,Net-(U7-NC)*%
X137700000Y-50325000D03*
%TO.P,U7,2,VDD*%
%TO.N,+12V*%
X136100000Y-50325000D03*
%TO.P,U7,3,DO*%
%TO.N,Net-(U7-DO)*%
X134500000Y-50325000D03*
%TO.P,U7,4,DI*%
%TO.N,Net-(U6-DO)*%
X134500000Y-55225000D03*
%TO.P,U7,5,GND*%
%TO.N,-12V*%
X136100000Y-55225000D03*
%TO.P,U7,6,BI*%
%TO.N,unconnected-(U7-BI-Pad6)*%
X137700000Y-55225000D03*
%TD*%
D10*
%TO.P,C8,1*%
%TO.N,-12V*%
X171500000Y-90430000D03*
%TO.P,C8,2*%
%TO.N,Net-(U2-~{RST})*%
X171500000Y-92330000D03*
%TD*%
D17*
%TO.P,R8,1*%
%TO.N,/GPIO_Button1*%
X117750000Y-61512500D03*
%TO.P,R8,2*%
%TO.N,Net-(R10-Pad2)*%
X117750000Y-59687500D03*
%TD*%
D12*
%TO.P,C3,1*%
%TO.N,VDDA*%
X169675000Y-75750000D03*
%TO.P,C3,2*%
%TO.N,-12V*%
X169675000Y-73850000D03*
%TD*%
%TO.P,C4,1*%
%TO.N,VDDA*%
X167700000Y-75750000D03*
%TO.P,C4,2*%
%TO.N,-12V*%
X167700000Y-73850000D03*
%TD*%
D14*
%TO.P,U4,1,NC*%
%TO.N,Net-(U4-NC)*%
X137700000Y-74125000D03*
%TO.P,U4,2,VDD*%
%TO.N,+12V*%
X136100000Y-74125000D03*
%TO.P,U4,3,DO*%
%TO.N,Net-(U4-DO)*%
X134500000Y-74125000D03*
%TO.P,U4,4,DI*%
%TO.N,/GPIO_LED_RELAY1*%
X134500000Y-79025000D03*
%TO.P,U4,5,GND*%
%TO.N,-12V*%
X136100000Y-79025000D03*
%TO.P,U4,6,BI*%
%TO.N,unconnected-(U4-BI-Pad6)*%
X137700000Y-79025000D03*
%TD*%
D12*
%TO.P,C6,1*%
%TO.N,Net-(C6-Pad1)*%
X177500000Y-82357600D03*
%TO.P,C6,2*%
%TO.N,-12V*%
X177500000Y-80457600D03*
%TD*%
D11*
%TO.P,R3,1*%
%TO.N,VDD*%
X165000000Y-90487500D03*
%TO.P,R3,2*%
%TO.N,Net-(U2-EN)*%
X165000000Y-92312500D03*
%TD*%
D14*
%TO.P,U10,1,NC*%
%TO.N,Net-(U10-NC)*%
X126625000Y-71225000D03*
%TO.P,U10,2,VDD*%
%TO.N,+12V*%
X128225000Y-71225000D03*
%TO.P,U10,3,DO*%
%TO.N,Net-(U10-DO)*%
X129825000Y-71225000D03*
%TO.P,U10,4,DI*%
%TO.N,Net-(U10-DI)*%
X129825000Y-66325000D03*
%TO.P,U10,5,GND*%
%TO.N,-12V*%
X128225000Y-66325000D03*
%TO.P,U10,6,BI*%
%TO.N,unconnected-(U10-BI-Pad6)*%
X126625000Y-66325000D03*
%TD*%
D20*
%TO.P,R1,1*%
%TO.N,Net-(C6-Pad1)*%
X169537500Y-80650000D03*
%TO.P,R1,2*%
%TO.N,Net-(U1-PF1)*%
X167712500Y-80650000D03*
%TD*%
D14*
%TO.P,U9,1,NC*%
%TO.N,Net-(U9-NC)*%
X126625000Y-63225000D03*
%TO.P,U9,2,VDD*%
%TO.N,+12V*%
X128225000Y-63225000D03*
%TO.P,U9,3,DO*%
%TO.N,Net-(U10-DI)*%
X129825000Y-63225000D03*
%TO.P,U9,4,DI*%
%TO.N,Net-(U8-DO)*%
X129825000Y-58325000D03*
%TO.P,U9,5,GND*%
%TO.N,-12V*%
X128225000Y-58325000D03*
%TO.P,U9,6,BI*%
%TO.N,unconnected-(U9-BI-Pad6)*%
X126625000Y-58325000D03*
%TD*%
D29*
%TO.P,SW1,1,1*%
%TO.N,Net-(R7-Pad1)*%
X117800000Y-75125000D03*
X117800000Y-69875000D03*
%TO.P,SW1,2,2*%
%TO.N,VDD*%
X121000000Y-75125000D03*
X121000000Y-69875000D03*
%TD*%
D10*
%TO.P,C15,1*%
%TO.N,Net-(U4-NC)*%
X140400000Y-73640000D03*
%TO.P,C15,2*%
%TO.N,-12V*%
X140400000Y-75540000D03*
%TD*%
D30*
%TO.P,U13,1,D*%
%TO.N,/USART2_RX*%
X159550000Y-66460000D03*
%TO.P,U13,2,GND*%
%TO.N,-12V*%
X159550000Y-67730000D03*
%TO.P,U13,3,VCC*%
%TO.N,VDD*%
X159550000Y-69000000D03*
%TO.P,U13,4,R*%
%TO.N,/USART2_TX*%
X159550000Y-70270000D03*
%TO.P,U13,5,Vref*%
%TO.N,-12V*%
X164500000Y-70270000D03*
%TO.P,U13,6,CANL*%
%TO.N,/CAN_L*%
X164500000Y-69000000D03*
%TO.P,U13,7,CANH*%
%TO.N,/CAN_H*%
X164500000Y-67730000D03*
%TO.P,U13,8,Rs*%
%TO.N,-12V*%
X164500000Y-66460000D03*
%TD*%
D11*
%TO.P,R13,1*%
%TO.N,Net-(U3-FB)*%
X145725000Y-54700000D03*
%TO.P,R13,2*%
%TO.N,-12V*%
X145725000Y-56525000D03*
%TD*%
D31*
%TO.P,C23,1*%
%TO.N,VDD*%
X143900000Y-58100000D03*
%TO.P,C23,2*%
%TO.N,-12V*%
X145450000Y-58100000D03*
%TD*%
D32*
%TO.P,U3,1,GND*%
%TO.N,-12V*%
X161087500Y-57762500D03*
%TO.P,U3,2,SW*%
%TO.N,Net-(U3-SW)*%
X162037500Y-57762500D03*
%TO.P,U3,3,VIN*%
%TO.N,+12V*%
X162987500Y-57762500D03*
%TO.P,U3,4,FB*%
%TO.N,Net-(U3-FB)*%
X162987500Y-55487500D03*
%TO.P,U3,5,EN*%
%TO.N,unconnected-(U3-EN-Pad5)*%
X162037500Y-55487500D03*
%TO.P,U3,6,BOOT*%
%TO.N,Net-(U3-BOOT)*%
X161087500Y-55487500D03*
%TD*%
D12*
%TO.P,C20,1*%
%TO.N,Net-(U9-NC)*%
X123925000Y-63710000D03*
%TO.P,C20,2*%
%TO.N,-12V*%
X123925000Y-61810000D03*
%TD*%
D10*
%TO.P,C14,1*%
%TO.N,VDD*%
X121200000Y-59700000D03*
%TO.P,C14,2*%
%TO.N,/GPIO_Button1*%
X121200000Y-61600000D03*
%TD*%
D33*
%TO.N,VDD*%
X151700000Y-88900000D03*
X152875000Y-76275000D03*
X156000000Y-69150000D03*
X149625000Y-82550000D03*
X149625000Y-91225000D03*
X157550000Y-70225000D03*
X154725000Y-78050000D03*
%TO.N,/GPIO_OLED*%
X160950000Y-83000000D03*
X151100000Y-101250000D03*
%TO.N,/SPI1_NSS*%
X150250000Y-103350000D03*
X149950000Y-93300000D03*
%TO.N,-12V*%
X140400000Y-68825000D03*
X121450000Y-77250000D03*
X157859442Y-68059443D03*
X165475000Y-53475000D03*
X152500000Y-82850000D03*
X123925000Y-68650000D03*
X166200000Y-66150000D03*
X136650000Y-64625000D03*
X123925000Y-76550000D03*
X161412500Y-59536722D03*
X136100000Y-80375000D03*
X166350000Y-73850000D03*
X157800000Y-80100000D03*
X140400000Y-76700000D03*
X166150000Y-70550000D03*
X123925000Y-52750000D03*
X177650000Y-84050000D03*
X127450000Y-64775000D03*
X128225000Y-48975000D03*
X136800000Y-56725000D03*
X140400000Y-60825000D03*
X158050000Y-91150000D03*
X155872425Y-114677575D03*
X145954442Y-59345558D03*
X140400000Y-52900000D03*
X121525000Y-50250000D03*
X157800000Y-78700000D03*
X123925000Y-60600000D03*
X169400000Y-85600000D03*
X155000000Y-112450000D03*
X127475000Y-56825000D03*
X136650000Y-72625000D03*
X127600000Y-72775000D03*
X171500000Y-89400000D03*
%TO.N,/NRST*%
X165425000Y-84725000D03*
X167800000Y-79250000D03*
%TO.N,Net-(U1-PF0)*%
X167800000Y-82000000D03*
X170225000Y-77750000D03*
%TO.N,+12V*%
X131625000Y-80475000D03*
X164325000Y-57175000D03*
X135200000Y-72625000D03*
X135200000Y-56700000D03*
X129050000Y-72775000D03*
X136300000Y-48800000D03*
X129050000Y-56825000D03*
X135175000Y-64625000D03*
X129050000Y-64775000D03*
%TO.N,/GPIO_Button2*%
X120475000Y-63800000D03*
X156075000Y-78050000D03*
%TO.N,/GPIO_Button1*%
X118200000Y-63775000D03*
X167025000Y-77700000D03*
%TO.N,/GPIO_LED_RELAY1*%
X155450000Y-76775000D03*
X134500000Y-80650000D03*
%TO.N,/SWCLK*%
X158800000Y-84875000D03*
X159329442Y-83320558D03*
%TO.N,Net-(U3-FB)*%
X145600000Y-53150000D03*
X163150000Y-54400000D03*
%TO.N,/USART1_RX*%
X157907672Y-83666557D03*
X164500000Y-114050000D03*
%TO.N,/USART1_TX*%
X157075000Y-83325000D03*
X163050000Y-113500000D03*
%TD*%
D34*
%TO.N,VDD*%
X121100000Y-57625000D02*
X121700000Y-57625000D01*
X154169974Y-78050000D02*
X154725000Y-78050000D01*
X162325000Y-90125000D02*
X162750000Y-90550000D01*
X143900000Y-58100000D02*
X142650000Y-58100000D01*
X153875000Y-79350000D02*
X156000000Y-79350000D01*
X143900000Y-57475000D02*
X143900000Y-58100000D01*
X151700000Y-96525000D02*
X151700000Y-88900000D01*
X162750000Y-91900000D02*
X162325000Y-92325000D01*
X162750000Y-90550000D02*
X162750000Y-91900000D01*
X165000000Y-90487500D02*
X164162500Y-90487500D01*
X161650000Y-90125000D02*
X162325000Y-90125000D01*
X141650000Y-48300000D02*
X141525000Y-48175000D01*
X151900000Y-111589034D02*
X156410966Y-116100000D01*
X142650000Y-58100000D02*
X141650000Y-57100000D01*
X142800000Y-56525000D02*
X143625000Y-56525000D01*
X151700000Y-96525000D02*
X151900000Y-96725000D01*
X121700000Y-57625000D02*
X122425000Y-56900000D01*
X143625000Y-57200000D02*
X143900000Y-57475000D01*
X154200000Y-68475000D02*
X154200000Y-74950000D01*
X122425000Y-67500000D02*
X122425000Y-66705000D01*
X144625000Y-51625000D02*
X142175000Y-54075000D01*
X121100000Y-68030000D02*
X121970000Y-68030000D01*
X121000000Y-69875000D02*
X121650000Y-69875000D01*
X161000000Y-115925000D02*
X160825000Y-116100000D01*
X152612500Y-88900000D02*
X153843750Y-90131250D01*
X155650000Y-90125000D02*
X153850000Y-90125000D01*
X154200000Y-74950000D02*
X152875000Y-76275000D01*
X154200000Y-68475000D02*
X154875000Y-69150000D01*
X161000000Y-115262500D02*
X161000000Y-115925000D01*
X162375000Y-88975000D02*
X156800000Y-88975000D01*
X159650000Y-79350000D02*
X156000000Y-79350000D01*
X149125000Y-63400000D02*
X154200000Y-68475000D01*
X156410966Y-116100000D02*
X159175000Y-116100000D01*
X155000000Y-91287500D02*
X155000000Y-95400000D01*
X151700000Y-88900000D02*
X152612500Y-88900000D01*
X157550000Y-70225000D02*
X157550000Y-69375000D01*
X121970000Y-68030000D02*
X122425000Y-67575000D01*
X122425000Y-59075000D02*
X122425000Y-66705000D01*
X122425000Y-51300000D02*
X122425000Y-59075000D01*
X122425000Y-69100000D02*
X122425000Y-67500000D01*
X121200000Y-59700000D02*
X122075000Y-59700000D01*
X150950000Y-97937500D02*
X150950000Y-97275000D01*
X162325000Y-92325000D02*
X161650000Y-92325000D01*
X149625000Y-79525000D02*
X149625000Y-82550000D01*
X148510000Y-92340000D02*
X146500000Y-92340000D01*
X162750000Y-89350000D02*
X162375000Y-88975000D01*
X162750000Y-90550000D02*
X162750000Y-89350000D01*
X159000000Y-115262500D02*
X159000000Y-115925000D01*
X122425000Y-67575000D02*
X122425000Y-67500000D01*
X153875000Y-79350000D02*
X153875000Y-78344974D01*
X157550000Y-69375000D02*
X157925000Y-69000000D01*
X142175000Y-55900000D02*
X142800000Y-56525000D01*
X121000000Y-75125000D02*
X121000000Y-69875000D01*
X159175000Y-116100000D02*
X159000000Y-115925000D01*
X157925000Y-69000000D02*
X159550000Y-69000000D01*
X141525000Y-48175000D02*
X125550000Y-48175000D01*
X152875000Y-76275000D02*
X149625000Y-79525000D01*
X153850000Y-90125000D02*
X153843750Y-90131250D01*
X151900000Y-96725000D02*
X151900000Y-111589034D01*
X153875000Y-78344974D02*
X154169974Y-78050000D01*
X143625000Y-56525000D02*
X143625000Y-57200000D01*
X149625000Y-91225000D02*
X148510000Y-92340000D01*
X122425000Y-59350000D02*
X122425000Y-59075000D01*
X141650000Y-57100000D02*
X141650000Y-48300000D01*
X154875000Y-69150000D02*
X156000000Y-69150000D01*
X125550000Y-48175000D02*
X122425000Y-51300000D01*
X121650000Y-69875000D02*
X122425000Y-69100000D01*
X122075000Y-59700000D02*
X122425000Y-59350000D01*
X165000000Y-90487500D02*
X169000000Y-90487500D01*
X164162500Y-90487500D02*
X162750000Y-91900000D01*
X150950000Y-97275000D02*
X151700000Y-96525000D01*
X121100000Y-52375000D02*
X121100000Y-57625000D01*
X146400000Y-63400000D02*
X149125000Y-63400000D01*
X153843750Y-90131250D02*
X155000000Y-91287500D01*
X156800000Y-88975000D02*
X155650000Y-90125000D01*
X153300000Y-51625000D02*
X144625000Y-51625000D01*
X160825000Y-116100000D02*
X159175000Y-116100000D01*
X143900000Y-60900000D02*
X146400000Y-63400000D01*
X142175000Y-54075000D02*
X142175000Y-55900000D01*
X152612500Y-88900000D02*
X154962500Y-86550000D01*
X143900000Y-58100000D02*
X143900000Y-60900000D01*
%TO.N,/GPIO_OLED*%
X164850000Y-83000000D02*
X160950000Y-83000000D01*
X165325000Y-82525000D02*
X164850000Y-83000000D01*
X151100000Y-101775000D02*
X150375000Y-102500000D01*
X150375000Y-102500000D02*
X146500000Y-102500000D01*
X151100000Y-101250000D02*
X151100000Y-101775000D01*
X165375000Y-81950000D02*
X165375000Y-82475000D01*
X165375000Y-82475000D02*
X165325000Y-82525000D01*
%TO.N,Net-(Brd1-RES)*%
X146500000Y-99960000D02*
X149515000Y-99960000D01*
X150950000Y-99762500D02*
X149712500Y-99762500D01*
X149712500Y-99762500D02*
X149515000Y-99960000D01*
%TO.N,/SPI1_MOSI*%
X148380000Y-97420000D02*
X146500000Y-97420000D01*
X150950000Y-80239948D02*
X150950000Y-94850000D01*
X150950000Y-94850000D02*
X148380000Y-97420000D01*
X159650000Y-77400000D02*
X153789948Y-77400000D01*
X153789948Y-77400000D02*
X150950000Y-80239948D01*
%TO.N,/SPI1_NSS*%
X154550000Y-75650000D02*
X164925000Y-75650000D01*
X150250000Y-91483884D02*
X150250000Y-79950000D01*
X149950000Y-91783884D02*
X150250000Y-91483884D01*
X150250000Y-103350000D02*
X150250000Y-104200000D01*
X149950000Y-93300000D02*
X149950000Y-91783884D01*
X149410000Y-105040000D02*
X146500000Y-105040000D01*
X164925000Y-75650000D02*
X165375000Y-76100000D01*
X150250000Y-79950000D02*
X154550000Y-75650000D01*
X150250000Y-104200000D02*
X149410000Y-105040000D01*
%TO.N,/SPI1_SCK*%
X150600000Y-93950000D02*
X150600000Y-80094974D01*
X154619974Y-76075000D02*
X159625000Y-76075000D01*
X150600000Y-80094974D02*
X154619974Y-76075000D01*
X149670000Y-94880000D02*
X150600000Y-93950000D01*
X159625000Y-76075000D02*
X159650000Y-76100000D01*
X146500000Y-94880000D02*
X149670000Y-94880000D01*
%TO.N,-12V*%
X136100000Y-79025000D02*
X136100000Y-80375000D01*
X140400000Y-75540000D02*
X140400000Y-76700000D01*
X128225000Y-65550000D02*
X127450000Y-64775000D01*
X136100000Y-56025000D02*
X136800000Y-56725000D01*
X145450000Y-58100000D02*
X145450000Y-59225000D01*
X136100000Y-71125000D02*
X136100000Y-72075000D01*
X140400000Y-51740000D02*
X140400000Y-52900000D01*
X159550000Y-67730000D02*
X158188885Y-67730000D01*
X140400000Y-59640000D02*
X140400000Y-60825000D01*
D35*
X168882500Y-54767500D02*
X168625000Y-55025000D01*
D34*
X136100000Y-55225000D02*
X136100000Y-56025000D01*
X128225000Y-74225000D02*
X128225000Y-73400000D01*
X169400000Y-85600000D02*
X168125000Y-85600000D01*
X136100000Y-64075000D02*
X136650000Y-64625000D01*
X157502500Y-86550000D02*
X156450000Y-85497500D01*
X157207672Y-80692328D02*
X157800000Y-80100000D01*
X123925000Y-53910000D02*
X123925000Y-52750000D01*
D35*
X166600000Y-54600000D02*
X165475000Y-53475000D01*
D34*
X159100000Y-90125000D02*
X158675000Y-90550000D01*
X145450000Y-59225000D02*
X145570558Y-59345558D01*
D35*
X171857500Y-54767500D02*
X168882500Y-54767500D01*
D34*
X178575000Y-83125000D02*
X177650000Y-84050000D01*
X145725000Y-56525000D02*
X145725000Y-57150000D01*
X123925000Y-61810000D02*
X123925000Y-60600000D01*
X120412500Y-50250000D02*
X121525000Y-50250000D01*
X171500000Y-89400000D02*
X171500000Y-90430000D01*
X157207672Y-81500000D02*
X157207672Y-80692328D01*
X153875000Y-81250000D02*
X153875000Y-81875000D01*
X128225000Y-66325000D02*
X128225000Y-65550000D01*
X158675000Y-91900000D02*
X159100000Y-92325000D01*
D35*
X161412500Y-59536722D02*
X161087500Y-59211722D01*
D34*
X167700000Y-73850000D02*
X166350000Y-73850000D01*
X178575000Y-79600000D02*
X178575000Y-83125000D01*
X165870000Y-70270000D02*
X166150000Y-70550000D01*
X158188885Y-67730000D02*
X157859442Y-68059443D01*
X159100000Y-92325000D02*
X159750000Y-92325000D01*
X159750000Y-90125000D02*
X159100000Y-90125000D01*
X158675000Y-91150000D02*
X158050000Y-91150000D01*
D35*
X168625000Y-55025000D02*
X166600000Y-55025000D01*
D34*
X140400000Y-67640000D02*
X140400000Y-68825000D01*
X120312500Y-77250000D02*
X121450000Y-77250000D01*
X155000000Y-112450000D02*
X155000000Y-110600000D01*
X167700000Y-73850000D02*
X169675000Y-73850000D01*
X177500000Y-79600000D02*
X178575000Y-79600000D01*
X156450000Y-85497500D02*
X156450000Y-83066116D01*
D35*
X161087500Y-59211722D02*
X161087500Y-57762500D01*
D34*
X164500000Y-70270000D02*
X165870000Y-70270000D01*
X128225000Y-73400000D02*
X127600000Y-72775000D01*
X145725000Y-57150000D02*
X145450000Y-57425000D01*
X158675000Y-91150000D02*
X158675000Y-91900000D01*
X156450000Y-83066116D02*
X156916116Y-82600000D01*
X136100000Y-63125000D02*
X136100000Y-64075000D01*
X136100000Y-72075000D02*
X136650000Y-72625000D01*
X164500000Y-66460000D02*
X165890000Y-66460000D01*
X157000000Y-115262500D02*
X156457350Y-115262500D01*
X145450000Y-57425000D02*
X145450000Y-58100000D01*
X156916116Y-82600000D02*
X157207672Y-82308444D01*
X177500000Y-80457600D02*
X177500000Y-79600000D01*
X159650000Y-78700000D02*
X157800000Y-78700000D01*
X128225000Y-57575000D02*
X127475000Y-56825000D01*
X152900000Y-82850000D02*
X152500000Y-82850000D01*
X128225000Y-50425000D02*
X128225000Y-48975000D01*
X156457350Y-115262500D02*
X155872425Y-114677575D01*
X165890000Y-66460000D02*
X166200000Y-66150000D01*
X145570558Y-59345558D02*
X145954442Y-59345558D01*
X123925000Y-77710000D02*
X123925000Y-76550000D01*
X177500000Y-79600000D02*
X177500000Y-78792400D01*
X158675000Y-90550000D02*
X158675000Y-91150000D01*
X157207672Y-82308444D02*
X157207672Y-81500000D01*
X153875000Y-81875000D02*
X153850000Y-81900000D01*
X153875000Y-81250000D02*
X156000000Y-81250000D01*
D35*
X166600000Y-55025000D02*
X166600000Y-54600000D01*
D34*
X153850000Y-81900000D02*
X152900000Y-82850000D01*
X123925000Y-69810000D02*
X123925000Y-68650000D01*
X128225000Y-58325000D02*
X128225000Y-57575000D01*
%TO.N,VDDA*%
X167950000Y-77725000D02*
X169125000Y-76550000D01*
X167700000Y-76300000D02*
X167700000Y-75750000D01*
X169425000Y-76550000D02*
X169250000Y-76550000D01*
X169675000Y-76300000D02*
X169425000Y-76550000D01*
X169675000Y-75750000D02*
X169675000Y-76300000D01*
X165375000Y-79350000D02*
X166325000Y-79350000D01*
X169250000Y-76550000D02*
X167950000Y-76550000D01*
X169125000Y-76550000D02*
X169250000Y-76550000D01*
X167950000Y-76550000D02*
X167700000Y-76300000D01*
X166325000Y-79350000D02*
X167950000Y-77725000D01*
%TO.N,/NRST*%
X165122500Y-86550000D02*
X165122500Y-85027500D01*
X166935966Y-80000000D02*
X165375000Y-80000000D01*
X168125000Y-87500000D02*
X167250000Y-87500000D01*
X165122500Y-85027500D02*
X165425000Y-84725000D01*
X166300000Y-86550000D02*
X165122500Y-86550000D01*
X167800000Y-79250000D02*
X167685966Y-79250000D01*
X167685966Y-79250000D02*
X166935966Y-80000000D01*
X167250000Y-87500000D02*
X166300000Y-86550000D01*
%TO.N,Net-(C6-Pad1)*%
X170200000Y-80650000D02*
X171615000Y-82065000D01*
X176340000Y-82065000D02*
X173525000Y-82065000D01*
X169537500Y-80650000D02*
X170200000Y-80650000D01*
X177500000Y-82357600D02*
X176632600Y-82357600D01*
X176632600Y-82357600D02*
X176340000Y-82065000D01*
X171615000Y-82065000D02*
X173525000Y-82065000D01*
%TO.N,Net-(U1-PF0)*%
X173525000Y-77184999D02*
X170790001Y-77184999D01*
X176340001Y-77184999D02*
X173525000Y-77184999D01*
X177500000Y-76892400D02*
X176632600Y-76892400D01*
X170790001Y-77184999D02*
X170225000Y-77750000D01*
X176632600Y-76892400D02*
X176340001Y-77184999D01*
X166625000Y-81300000D02*
X165375000Y-81300000D01*
X167800000Y-82000000D02*
X167325000Y-82000000D01*
X167325000Y-82000000D02*
X166625000Y-81300000D01*
%TO.N,Net-(U2-~{RST})*%
X169575000Y-93400000D02*
X169575000Y-94100000D01*
X169000000Y-94675000D02*
X169575000Y-94100000D01*
X170400000Y-94100000D02*
X169575000Y-94100000D01*
X169137500Y-92312500D02*
X169000000Y-92312500D01*
X171500000Y-93000000D02*
X171500000Y-92330000D01*
X169000000Y-92312500D02*
X169000000Y-92825000D01*
X169000000Y-95400000D02*
X169000000Y-94675000D01*
X171500000Y-93000000D02*
X170400000Y-94100000D01*
X169000000Y-92825000D02*
X169575000Y-93400000D01*
D35*
%TO.N,+12V*%
X162987500Y-58537500D02*
X162987500Y-57762500D01*
X163375000Y-58925000D02*
X162987500Y-58537500D01*
X165200000Y-57975000D02*
X164400000Y-57175000D01*
X166600000Y-57975000D02*
X165200000Y-57975000D01*
X128225000Y-56000000D02*
X129050000Y-56825000D01*
X128225000Y-63225000D02*
X128225000Y-63950000D01*
X128675000Y-80475000D02*
X131625000Y-80475000D01*
X128225000Y-71950000D02*
X128225000Y-71225000D01*
X136100000Y-49000000D02*
X136300000Y-48800000D01*
X164250000Y-58925000D02*
X163375000Y-58925000D01*
X135200000Y-72625000D02*
X136100000Y-73525000D01*
X136100000Y-57600000D02*
X135200000Y-56700000D01*
X129050000Y-72775000D02*
X128225000Y-71950000D01*
X136100000Y-73525000D02*
X136100000Y-74125000D01*
X168300000Y-57975000D02*
X166600000Y-57975000D01*
X171857500Y-58267500D02*
X168592500Y-58267500D01*
X128225000Y-79125000D02*
X128225000Y-80025000D01*
X128225000Y-55325000D02*
X128225000Y-56000000D01*
X136100000Y-65550000D02*
X135175000Y-64625000D01*
X164400000Y-57175000D02*
X164325000Y-57175000D01*
X128225000Y-63950000D02*
X129050000Y-64775000D01*
X136100000Y-50325000D02*
X136100000Y-49000000D01*
X168592500Y-58267500D02*
X168300000Y-57975000D01*
X165200000Y-57975000D02*
X164250000Y-58925000D01*
X136100000Y-58225000D02*
X136100000Y-57600000D01*
X128225000Y-80025000D02*
X128675000Y-80475000D01*
X136100000Y-66225000D02*
X136100000Y-65550000D01*
D34*
%TO.N,Net-(U3-SW)*%
X162037500Y-57762500D02*
X162037500Y-60012500D01*
X158937499Y-61525000D02*
X153300000Y-61525000D01*
X160115000Y-60347500D02*
X160056250Y-60406250D01*
X160115000Y-52555000D02*
X160115000Y-60347500D01*
X160056250Y-60406250D02*
X158937499Y-61525000D01*
X161090000Y-51580000D02*
X160115000Y-52555000D01*
X161702500Y-60347500D02*
X160115000Y-60347500D01*
X162037500Y-60012500D02*
X161702500Y-60347500D01*
D35*
%TO.N,Net-(U3-BOOT)*%
X161090000Y-54260000D02*
X161090000Y-53480000D01*
X161087500Y-54262500D02*
X161090000Y-54260000D01*
X161087500Y-55487500D02*
X161087500Y-54262500D01*
D34*
%TO.N,/GPIO_Button2*%
X121100000Y-66130000D02*
X120230000Y-66130000D01*
X159650000Y-78050000D02*
X156075000Y-78050000D01*
X119825000Y-64750000D02*
X119825000Y-64450000D01*
X119825000Y-64450000D02*
X120475000Y-63800000D01*
X120230000Y-66130000D02*
X119825000Y-65725000D01*
X119825000Y-64875000D02*
X119825000Y-64750000D01*
X118512500Y-66187500D02*
X119825000Y-64875000D01*
X117650000Y-66187500D02*
X118512500Y-66187500D01*
X119825000Y-65100000D02*
X119825000Y-64450000D01*
X119825000Y-65725000D02*
X119825000Y-64750000D01*
%TO.N,/GPIO_Button1*%
X119150000Y-61875000D02*
X118787500Y-61512500D01*
X166675000Y-78050000D02*
X167025000Y-77700000D01*
X165375000Y-78050000D02*
X166675000Y-78050000D01*
X118787500Y-61512500D02*
X117750000Y-61512500D01*
X119150000Y-62825000D02*
X120375000Y-61600000D01*
X118200000Y-63775000D02*
X119150000Y-62825000D01*
X119150000Y-62825000D02*
X119150000Y-61875000D01*
X120375000Y-61600000D02*
X121200000Y-61600000D01*
%TO.N,Net-(U4-NC)*%
X140400000Y-73640000D02*
X139260000Y-73640000D01*
X138775000Y-74125000D02*
X137700000Y-74125000D01*
X139260000Y-73640000D02*
X138775000Y-74125000D01*
%TO.N,Net-(U5-NC)*%
X139285000Y-65740000D02*
X140400000Y-65740000D01*
X138800000Y-66225000D02*
X139285000Y-65740000D01*
X137700000Y-66225000D02*
X138800000Y-66225000D01*
%TO.N,Net-(U6-NC)*%
X139335000Y-57740000D02*
X140400000Y-57740000D01*
X138850000Y-58225000D02*
X139335000Y-57740000D01*
X137700000Y-58225000D02*
X138850000Y-58225000D01*
%TO.N,Net-(U7-NC)*%
X139310000Y-49840000D02*
X140400000Y-49840000D01*
X137700000Y-50325000D02*
X138825000Y-50325000D01*
X138825000Y-50325000D02*
X139310000Y-49840000D01*
%TO.N,Net-(U8-NC)*%
X123925000Y-55810000D02*
X124990000Y-55810000D01*
X125475000Y-55325000D02*
X126625000Y-55325000D01*
X124990000Y-55810000D02*
X125475000Y-55325000D01*
%TO.N,Net-(U9-NC)*%
X126625000Y-63225000D02*
X125462500Y-63225000D01*
X124977500Y-63710000D02*
X123925000Y-63710000D01*
X125462500Y-63225000D02*
X124977500Y-63710000D01*
%TO.N,Net-(U10-NC)*%
X123925000Y-71710000D02*
X124990000Y-71710000D01*
X124990000Y-71710000D02*
X125475000Y-71225000D01*
X125475000Y-71225000D02*
X126625000Y-71225000D01*
%TO.N,Net-(U11-NC)*%
X125040000Y-79610000D02*
X125525000Y-79125000D01*
X125525000Y-79125000D02*
X126625000Y-79125000D01*
X123925000Y-79610000D02*
X125040000Y-79610000D01*
%TO.N,/CAN_L*%
X169077500Y-69277500D02*
X169800000Y-70000000D01*
X169800000Y-70000000D02*
X172000000Y-70000000D01*
X167025000Y-69277500D02*
X169077500Y-69277500D01*
X167025000Y-69277500D02*
X166152500Y-69277500D01*
X166152500Y-69277500D02*
X165875000Y-69000000D01*
X165875000Y-69000000D02*
X164500000Y-69000000D01*
%TO.N,/CAN_H*%
X165895000Y-67730000D02*
X164500000Y-67730000D01*
X167025000Y-67452500D02*
X166177500Y-67452500D01*
X166175000Y-67450000D02*
X165895000Y-67730000D01*
X166177500Y-67452500D02*
X166175000Y-67450000D01*
X170000000Y-66500000D02*
X172000000Y-66500000D01*
X169047500Y-67452500D02*
X170000000Y-66500000D01*
X167025000Y-67452500D02*
X169047500Y-67452500D01*
%TO.N,/GPIO_LED_RELAY1*%
X134500000Y-80650000D02*
X134500000Y-79025000D01*
X155450000Y-76775000D02*
X155475000Y-76750000D01*
X155475000Y-76750000D02*
X159650000Y-76750000D01*
%TO.N,/SWCLK*%
X158625000Y-82616116D02*
X159329442Y-83320558D01*
X158850000Y-81950000D02*
X158625000Y-82175000D01*
X159650000Y-81950000D02*
X158850000Y-81950000D01*
X160042500Y-86550000D02*
X158800000Y-85307500D01*
X158625000Y-82175000D02*
X158625000Y-82616116D01*
X158800000Y-85307500D02*
X158800000Y-84875000D01*
%TO.N,/SWDIO*%
X159650000Y-81300000D02*
X158875000Y-81300000D01*
X158875000Y-81300000D02*
X158275000Y-81900000D01*
X161675000Y-86550000D02*
X162582500Y-86550000D01*
X158275000Y-83150000D02*
X161675000Y-86550000D01*
X158275000Y-81900000D02*
X158275000Y-83150000D01*
%TO.N,Net-(U1-PF1)*%
X167712500Y-80650000D02*
X165375000Y-80650000D01*
%TO.N,Net-(U2-EN)*%
X165000000Y-92312500D02*
X165000000Y-95400000D01*
%TO.N,Net-(U2-GPIO0)*%
X161000000Y-113437500D02*
X161000000Y-110600000D01*
%TO.N,Net-(U2-GPIO2)*%
X159000000Y-113437500D02*
X159000000Y-110600000D01*
%TO.N,Net-(U2-GPIO15)*%
X157000000Y-113437500D02*
X157000000Y-110600000D01*
%TO.N,Net-(R7-Pad1)*%
X117650000Y-68012500D02*
X116837500Y-68012500D01*
X117600000Y-77250000D02*
X116625000Y-76275000D01*
X116625000Y-68225000D02*
X116625000Y-73625000D01*
X116837500Y-68012500D02*
X116625000Y-68225000D01*
X116625000Y-73625000D02*
X117800000Y-72450000D01*
X116625000Y-76275000D02*
X116625000Y-73625000D01*
X117800000Y-72450000D02*
X117800000Y-69875000D01*
X117800000Y-75125000D02*
X117800000Y-72450000D01*
X118487500Y-77250000D02*
X117600000Y-77250000D01*
%TO.N,Net-(R10-Pad2)*%
X117900000Y-55025000D02*
X117900000Y-52375000D01*
X116575000Y-59350000D02*
X116575000Y-56300000D01*
X116575000Y-51600000D02*
X117925000Y-50250000D01*
X117900000Y-55025000D02*
X116625000Y-56300000D01*
X116625000Y-56300000D02*
X116575000Y-56300000D01*
X117750000Y-59687500D02*
X116912500Y-59687500D01*
X117900000Y-57625000D02*
X117900000Y-55025000D01*
X117925000Y-50250000D02*
X118587500Y-50250000D01*
X116912500Y-59687500D02*
X116575000Y-59350000D01*
X116575000Y-56300000D02*
X116575000Y-51600000D01*
%TO.N,Net-(U3-FB)*%
X144225000Y-54100000D02*
X144650000Y-54100000D01*
X144650000Y-54100000D02*
X145125000Y-54100000D01*
X162987500Y-55487500D02*
X162987500Y-54562500D01*
X145600000Y-53150000D02*
X144650000Y-54100000D01*
X143625000Y-54700000D02*
X144225000Y-54100000D01*
X145125000Y-54100000D02*
X145725000Y-54700000D01*
X162987500Y-54562500D02*
X163150000Y-54400000D01*
%TO.N,/USART2_RX*%
X158575001Y-66460000D02*
X159550000Y-66460000D01*
X165375000Y-76750000D02*
X166112499Y-76750000D01*
X162200000Y-71600000D02*
X158025000Y-71600000D01*
X156850000Y-68185001D02*
X158575001Y-66460000D01*
X166375000Y-76487499D02*
X166375000Y-75775000D01*
X158025000Y-71600000D02*
X156850000Y-70425000D01*
X156850000Y-70425000D02*
X156850000Y-68185001D01*
X166375000Y-75775000D02*
X162200000Y-71600000D01*
X166112499Y-76750000D02*
X166375000Y-76487499D01*
%TO.N,/USART2_TX*%
X166725000Y-76787499D02*
X166112499Y-77400000D01*
X159825000Y-71250000D02*
X162344975Y-71250000D01*
X159550000Y-70975000D02*
X159825000Y-71250000D01*
X166725000Y-75630025D02*
X166725000Y-76787499D01*
X159550000Y-70270000D02*
X159550000Y-70975000D01*
X166112499Y-77400000D02*
X165375000Y-77400000D01*
X162344975Y-71250000D02*
X166725000Y-75630025D01*
%TO.N,/USART1_RX*%
X158912501Y-80650000D02*
X157907672Y-81654829D01*
X159650000Y-80650000D02*
X158912501Y-80650000D01*
X169000000Y-110600000D02*
X169000000Y-112000000D01*
X166950000Y-114050000D02*
X164500000Y-114050000D01*
X157907672Y-81654829D02*
X157907672Y-83666557D01*
X169000000Y-112000000D02*
X166950000Y-114050000D01*
%TO.N,/USART1_TX*%
X167000000Y-112025000D02*
X167000000Y-110600000D01*
X157557672Y-82842328D02*
X157075000Y-83325000D01*
X157557672Y-81354829D02*
X157557672Y-82842328D01*
X159650000Y-80000000D02*
X158912501Y-80000000D01*
X165600000Y-113425000D02*
X167000000Y-112025000D01*
X163050000Y-113500000D02*
X163125000Y-113425000D01*
X163125000Y-113425000D02*
X165600000Y-113425000D01*
X158912501Y-80000000D02*
X157557672Y-81354829D01*
%TO.N,Net-(U4-DO)*%
X134500000Y-71125000D02*
X134500000Y-74125000D01*
%TO.N,Net-(U5-DO)*%
X134500000Y-63125000D02*
X134500000Y-66225000D01*
%TO.N,Net-(U6-DO)*%
X134500000Y-58225000D02*
X134500000Y-55225000D01*
%TO.N,Net-(U7-DO)*%
X129825000Y-49525000D02*
X130400000Y-48950000D01*
X134500000Y-49350000D02*
X134500000Y-50325000D01*
X129825000Y-50425000D02*
X129825000Y-49525000D01*
X130400000Y-48950000D02*
X134100000Y-48950000D01*
X134100000Y-48950000D02*
X134500000Y-49350000D01*
%TO.N,Net-(U8-DO)*%
X129825000Y-55325000D02*
X129825000Y-58325000D01*
%TO.N,Net-(U10-DI)*%
X129825000Y-63225000D02*
X129825000Y-66325000D01*
%TO.N,Net-(U10-DO)*%
X129825000Y-71225000D02*
X129825000Y-74225000D01*
%TD*%
M02*
