%TF.GenerationSoftware,KiCad,Pcbnew,8.0.6*%
%TF.CreationDate,2024-12-14T14:20:07+01:00*%
%TF.ProjectId,PUEE,50554545-2e6b-4696-9361-645f70636258,rev?*%
%TF.SameCoordinates,Original*%
%TF.FileFunction,Legend,Top*%
%TF.FilePolarity,Positive*%
%FSLAX46Y46*%
G04 Gerber Fmt 4.6, Leading zero omitted, Abs format (unit mm)*
G04 Created by KiCad (PCBNEW 8.0.6) date 2024-12-14 14:20:07*
%MOMM*%
%LPD*%
G01*
G04 APERTURE LIST*
%ADD10C,0.187500*%
%ADD11C,0.150000*%
%ADD12C,0.120000*%
%ADD13C,0.152400*%
G04 APERTURE END LIST*
D10*
X145947981Y-76662359D02*
X145947981Y-77138549D01*
X145947981Y-77138549D02*
X144947981Y-77138549D01*
X145424171Y-76329025D02*
X145424171Y-75995692D01*
X145947981Y-75852835D02*
X145947981Y-76329025D01*
X145947981Y-76329025D02*
X144947981Y-76329025D01*
X144947981Y-76329025D02*
X144947981Y-75852835D01*
X145947981Y-75424263D02*
X144947981Y-75424263D01*
X144947981Y-75424263D02*
X144947981Y-75186168D01*
X144947981Y-75186168D02*
X144995600Y-75043311D01*
X144995600Y-75043311D02*
X145090838Y-74948073D01*
X145090838Y-74948073D02*
X145186076Y-74900454D01*
X145186076Y-74900454D02*
X145376552Y-74852835D01*
X145376552Y-74852835D02*
X145519409Y-74852835D01*
X145519409Y-74852835D02*
X145709885Y-74900454D01*
X145709885Y-74900454D02*
X145805123Y-74948073D01*
X145805123Y-74948073D02*
X145900362Y-75043311D01*
X145900362Y-75043311D02*
X145947981Y-75186168D01*
X145947981Y-75186168D02*
X145947981Y-75424263D01*
X145947981Y-73662358D02*
X144947981Y-73662358D01*
X145567028Y-73567120D02*
X145947981Y-73281406D01*
X145281314Y-73281406D02*
X145662266Y-73662358D01*
X145947981Y-72852834D02*
X145281314Y-72852834D01*
X144947981Y-72852834D02*
X144995600Y-72900453D01*
X144995600Y-72900453D02*
X145043219Y-72852834D01*
X145043219Y-72852834D02*
X144995600Y-72805215D01*
X144995600Y-72805215D02*
X144947981Y-72852834D01*
X144947981Y-72852834D02*
X145043219Y-72852834D01*
X145900362Y-71995692D02*
X145947981Y-72090930D01*
X145947981Y-72090930D02*
X145947981Y-72281406D01*
X145947981Y-72281406D02*
X145900362Y-72376644D01*
X145900362Y-72376644D02*
X145805123Y-72424263D01*
X145805123Y-72424263D02*
X145424171Y-72424263D01*
X145424171Y-72424263D02*
X145328933Y-72376644D01*
X145328933Y-72376644D02*
X145281314Y-72281406D01*
X145281314Y-72281406D02*
X145281314Y-72090930D01*
X145281314Y-72090930D02*
X145328933Y-71995692D01*
X145328933Y-71995692D02*
X145424171Y-71948073D01*
X145424171Y-71948073D02*
X145519409Y-71948073D01*
X145519409Y-71948073D02*
X145614647Y-72424263D01*
X145947981Y-71519501D02*
X145281314Y-71519501D01*
X145471790Y-71519501D02*
X145376552Y-71471882D01*
X145376552Y-71471882D02*
X145328933Y-71424263D01*
X145328933Y-71424263D02*
X145281314Y-71329025D01*
X145281314Y-71329025D02*
X145281314Y-71233787D01*
X145947981Y-70757596D02*
X145900362Y-70852834D01*
X145900362Y-70852834D02*
X145852742Y-70900453D01*
X145852742Y-70900453D02*
X145757504Y-70948072D01*
X145757504Y-70948072D02*
X145471790Y-70948072D01*
X145471790Y-70948072D02*
X145376552Y-70900453D01*
X145376552Y-70900453D02*
X145328933Y-70852834D01*
X145328933Y-70852834D02*
X145281314Y-70757596D01*
X145281314Y-70757596D02*
X145281314Y-70614739D01*
X145281314Y-70614739D02*
X145328933Y-70519501D01*
X145328933Y-70519501D02*
X145376552Y-70471882D01*
X145376552Y-70471882D02*
X145471790Y-70424263D01*
X145471790Y-70424263D02*
X145757504Y-70424263D01*
X145757504Y-70424263D02*
X145852742Y-70471882D01*
X145852742Y-70471882D02*
X145900362Y-70519501D01*
X145900362Y-70519501D02*
X145947981Y-70614739D01*
X145947981Y-70614739D02*
X145947981Y-70757596D01*
X145281314Y-70090929D02*
X145947981Y-69900453D01*
X145947981Y-69900453D02*
X145471790Y-69709977D01*
X145471790Y-69709977D02*
X145947981Y-69519501D01*
X145947981Y-69519501D02*
X145281314Y-69329025D01*
X145281314Y-68948072D02*
X145947981Y-68948072D01*
X145376552Y-68948072D02*
X145328933Y-68900453D01*
X145328933Y-68900453D02*
X145281314Y-68805215D01*
X145281314Y-68805215D02*
X145281314Y-68662358D01*
X145281314Y-68662358D02*
X145328933Y-68567120D01*
X145328933Y-68567120D02*
X145424171Y-68519501D01*
X145424171Y-68519501D02*
X145947981Y-68519501D01*
X145947981Y-68043310D02*
X145281314Y-68043310D01*
X144947981Y-68043310D02*
X144995600Y-68090929D01*
X144995600Y-68090929D02*
X145043219Y-68043310D01*
X145043219Y-68043310D02*
X144995600Y-67995691D01*
X144995600Y-67995691D02*
X144947981Y-68043310D01*
X144947981Y-68043310D02*
X145043219Y-68043310D01*
X145900362Y-67138549D02*
X145947981Y-67233787D01*
X145947981Y-67233787D02*
X145947981Y-67424263D01*
X145947981Y-67424263D02*
X145900362Y-67519501D01*
X145900362Y-67519501D02*
X145852742Y-67567120D01*
X145852742Y-67567120D02*
X145757504Y-67614739D01*
X145757504Y-67614739D02*
X145471790Y-67614739D01*
X145471790Y-67614739D02*
X145376552Y-67567120D01*
X145376552Y-67567120D02*
X145328933Y-67519501D01*
X145328933Y-67519501D02*
X145281314Y-67424263D01*
X145281314Y-67424263D02*
X145281314Y-67233787D01*
X145281314Y-67233787D02*
X145328933Y-67138549D01*
X145947981Y-66281406D02*
X145424171Y-66281406D01*
X145424171Y-66281406D02*
X145328933Y-66329025D01*
X145328933Y-66329025D02*
X145281314Y-66424263D01*
X145281314Y-66424263D02*
X145281314Y-66614739D01*
X145281314Y-66614739D02*
X145328933Y-66709977D01*
X145900362Y-66281406D02*
X145947981Y-66376644D01*
X145947981Y-66376644D02*
X145947981Y-66614739D01*
X145947981Y-66614739D02*
X145900362Y-66709977D01*
X145900362Y-66709977D02*
X145805123Y-66757596D01*
X145805123Y-66757596D02*
X145709885Y-66757596D01*
X145709885Y-66757596D02*
X145614647Y-66709977D01*
X145614647Y-66709977D02*
X145567028Y-66614739D01*
X145567028Y-66614739D02*
X145567028Y-66376644D01*
X145567028Y-66376644D02*
X145519409Y-66281406D01*
X147557925Y-76567121D02*
X147081734Y-76900454D01*
X147557925Y-77138549D02*
X146557925Y-77138549D01*
X146557925Y-77138549D02*
X146557925Y-76757597D01*
X146557925Y-76757597D02*
X146605544Y-76662359D01*
X146605544Y-76662359D02*
X146653163Y-76614740D01*
X146653163Y-76614740D02*
X146748401Y-76567121D01*
X146748401Y-76567121D02*
X146891258Y-76567121D01*
X146891258Y-76567121D02*
X146986496Y-76614740D01*
X146986496Y-76614740D02*
X147034115Y-76662359D01*
X147034115Y-76662359D02*
X147081734Y-76757597D01*
X147081734Y-76757597D02*
X147081734Y-77138549D01*
X147462686Y-76138549D02*
X147510306Y-76090930D01*
X147510306Y-76090930D02*
X147557925Y-76138549D01*
X147557925Y-76138549D02*
X147510306Y-76186168D01*
X147510306Y-76186168D02*
X147462686Y-76138549D01*
X147462686Y-76138549D02*
X147557925Y-76138549D01*
X147510306Y-74948073D02*
X147557925Y-74805216D01*
X147557925Y-74805216D02*
X147557925Y-74567121D01*
X147557925Y-74567121D02*
X147510306Y-74471883D01*
X147510306Y-74471883D02*
X147462686Y-74424264D01*
X147462686Y-74424264D02*
X147367448Y-74376645D01*
X147367448Y-74376645D02*
X147272210Y-74376645D01*
X147272210Y-74376645D02*
X147176972Y-74424264D01*
X147176972Y-74424264D02*
X147129353Y-74471883D01*
X147129353Y-74471883D02*
X147081734Y-74567121D01*
X147081734Y-74567121D02*
X147034115Y-74757597D01*
X147034115Y-74757597D02*
X146986496Y-74852835D01*
X146986496Y-74852835D02*
X146938877Y-74900454D01*
X146938877Y-74900454D02*
X146843639Y-74948073D01*
X146843639Y-74948073D02*
X146748401Y-74948073D01*
X146748401Y-74948073D02*
X146653163Y-74900454D01*
X146653163Y-74900454D02*
X146605544Y-74852835D01*
X146605544Y-74852835D02*
X146557925Y-74757597D01*
X146557925Y-74757597D02*
X146557925Y-74519502D01*
X146557925Y-74519502D02*
X146605544Y-74376645D01*
X146891258Y-74043311D02*
X146891258Y-73519502D01*
X146891258Y-73519502D02*
X147557925Y-74043311D01*
X147557925Y-74043311D02*
X147557925Y-73519502D01*
X146891258Y-73233787D02*
X147557925Y-72995692D01*
X146891258Y-72757597D02*
X147557925Y-72995692D01*
X147557925Y-72995692D02*
X147796020Y-73090930D01*
X147796020Y-73090930D02*
X147843639Y-73138549D01*
X147843639Y-73138549D02*
X147891258Y-73233787D01*
X146891258Y-71948073D02*
X147700782Y-71948073D01*
X147700782Y-71948073D02*
X147796020Y-71995692D01*
X147796020Y-71995692D02*
X147843639Y-72043311D01*
X147843639Y-72043311D02*
X147891258Y-72138549D01*
X147891258Y-72138549D02*
X147891258Y-72281406D01*
X147891258Y-72281406D02*
X147843639Y-72376644D01*
X147510306Y-71948073D02*
X147557925Y-72043311D01*
X147557925Y-72043311D02*
X147557925Y-72233787D01*
X147557925Y-72233787D02*
X147510306Y-72329025D01*
X147510306Y-72329025D02*
X147462686Y-72376644D01*
X147462686Y-72376644D02*
X147367448Y-72424263D01*
X147367448Y-72424263D02*
X147081734Y-72424263D01*
X147081734Y-72424263D02*
X146986496Y-72376644D01*
X146986496Y-72376644D02*
X146938877Y-72329025D01*
X146938877Y-72329025D02*
X146891258Y-72233787D01*
X146891258Y-72233787D02*
X146891258Y-72043311D01*
X146891258Y-72043311D02*
X146938877Y-71948073D01*
X147510306Y-71090930D02*
X147557925Y-71186168D01*
X147557925Y-71186168D02*
X147557925Y-71376644D01*
X147557925Y-71376644D02*
X147510306Y-71471882D01*
X147510306Y-71471882D02*
X147415067Y-71519501D01*
X147415067Y-71519501D02*
X147034115Y-71519501D01*
X147034115Y-71519501D02*
X146938877Y-71471882D01*
X146938877Y-71471882D02*
X146891258Y-71376644D01*
X146891258Y-71376644D02*
X146891258Y-71186168D01*
X146891258Y-71186168D02*
X146938877Y-71090930D01*
X146938877Y-71090930D02*
X147034115Y-71043311D01*
X147034115Y-71043311D02*
X147129353Y-71043311D01*
X147129353Y-71043311D02*
X147224591Y-71519501D01*
X146891258Y-70614739D02*
X147557925Y-70614739D01*
X146986496Y-70614739D02*
X146938877Y-70567120D01*
X146938877Y-70567120D02*
X146891258Y-70471882D01*
X146891258Y-70471882D02*
X146891258Y-70329025D01*
X146891258Y-70329025D02*
X146938877Y-70233787D01*
X146938877Y-70233787D02*
X147034115Y-70186168D01*
X147034115Y-70186168D02*
X147557925Y-70186168D01*
X147557925Y-69281406D02*
X146557925Y-69281406D01*
X147510306Y-69281406D02*
X147557925Y-69376644D01*
X147557925Y-69376644D02*
X147557925Y-69567120D01*
X147557925Y-69567120D02*
X147510306Y-69662358D01*
X147510306Y-69662358D02*
X147462686Y-69709977D01*
X147462686Y-69709977D02*
X147367448Y-69757596D01*
X147367448Y-69757596D02*
X147081734Y-69757596D01*
X147081734Y-69757596D02*
X146986496Y-69709977D01*
X146986496Y-69709977D02*
X146938877Y-69662358D01*
X146938877Y-69662358D02*
X146891258Y-69567120D01*
X146891258Y-69567120D02*
X146891258Y-69376644D01*
X146891258Y-69376644D02*
X146938877Y-69281406D01*
X147557925Y-68376644D02*
X147034115Y-68376644D01*
X147034115Y-68376644D02*
X146938877Y-68424263D01*
X146938877Y-68424263D02*
X146891258Y-68519501D01*
X146891258Y-68519501D02*
X146891258Y-68709977D01*
X146891258Y-68709977D02*
X146938877Y-68805215D01*
X147510306Y-68376644D02*
X147557925Y-68471882D01*
X147557925Y-68471882D02*
X147557925Y-68709977D01*
X147557925Y-68709977D02*
X147510306Y-68805215D01*
X147510306Y-68805215D02*
X147415067Y-68852834D01*
X147415067Y-68852834D02*
X147319829Y-68852834D01*
X147319829Y-68852834D02*
X147224591Y-68805215D01*
X147224591Y-68805215D02*
X147176972Y-68709977D01*
X147176972Y-68709977D02*
X147176972Y-68471882D01*
X147176972Y-68471882D02*
X147129353Y-68376644D01*
X149167869Y-77138549D02*
X148167869Y-77138549D01*
X149167869Y-76567121D02*
X148596440Y-76995692D01*
X148167869Y-76567121D02*
X148739297Y-77138549D01*
X149072630Y-76138549D02*
X149120250Y-76090930D01*
X149120250Y-76090930D02*
X149167869Y-76138549D01*
X149167869Y-76138549D02*
X149120250Y-76186168D01*
X149120250Y-76186168D02*
X149072630Y-76138549D01*
X149072630Y-76138549D02*
X149167869Y-76138549D01*
X148167869Y-74614740D02*
X148882154Y-74614740D01*
X148882154Y-74614740D02*
X149025011Y-74662359D01*
X149025011Y-74662359D02*
X149120250Y-74757597D01*
X149120250Y-74757597D02*
X149167869Y-74900454D01*
X149167869Y-74900454D02*
X149167869Y-74995692D01*
X149167869Y-73995692D02*
X149120250Y-74090930D01*
X149120250Y-74090930D02*
X149072630Y-74138549D01*
X149072630Y-74138549D02*
X148977392Y-74186168D01*
X148977392Y-74186168D02*
X148691678Y-74186168D01*
X148691678Y-74186168D02*
X148596440Y-74138549D01*
X148596440Y-74138549D02*
X148548821Y-74090930D01*
X148548821Y-74090930D02*
X148501202Y-73995692D01*
X148501202Y-73995692D02*
X148501202Y-73852835D01*
X148501202Y-73852835D02*
X148548821Y-73757597D01*
X148548821Y-73757597D02*
X148596440Y-73709978D01*
X148596440Y-73709978D02*
X148691678Y-73662359D01*
X148691678Y-73662359D02*
X148977392Y-73662359D01*
X148977392Y-73662359D02*
X149072630Y-73709978D01*
X149072630Y-73709978D02*
X149120250Y-73757597D01*
X149120250Y-73757597D02*
X149167869Y-73852835D01*
X149167869Y-73852835D02*
X149167869Y-73995692D01*
X148120250Y-73805216D02*
X148263107Y-73948073D01*
X148501202Y-73329025D02*
X148501202Y-72805216D01*
X148501202Y-72805216D02*
X149167869Y-73329025D01*
X149167869Y-73329025D02*
X149167869Y-72805216D01*
X148120250Y-72948073D02*
X148263107Y-73090930D01*
X148501202Y-72519501D02*
X149167869Y-72329025D01*
X149167869Y-72329025D02*
X148691678Y-72138549D01*
X148691678Y-72138549D02*
X149167869Y-71948073D01*
X149167869Y-71948073D02*
X148501202Y-71757597D01*
X149167869Y-71376644D02*
X148501202Y-71376644D01*
X148167869Y-71376644D02*
X148215488Y-71424263D01*
X148215488Y-71424263D02*
X148263107Y-71376644D01*
X148263107Y-71376644D02*
X148215488Y-71329025D01*
X148215488Y-71329025D02*
X148167869Y-71376644D01*
X148167869Y-71376644D02*
X148263107Y-71376644D01*
X149167869Y-70471883D02*
X148644059Y-70471883D01*
X148644059Y-70471883D02*
X148548821Y-70519502D01*
X148548821Y-70519502D02*
X148501202Y-70614740D01*
X148501202Y-70614740D02*
X148501202Y-70805216D01*
X148501202Y-70805216D02*
X148548821Y-70900454D01*
X149120250Y-70471883D02*
X149167869Y-70567121D01*
X149167869Y-70567121D02*
X149167869Y-70805216D01*
X149167869Y-70805216D02*
X149120250Y-70900454D01*
X149120250Y-70900454D02*
X149025011Y-70948073D01*
X149025011Y-70948073D02*
X148929773Y-70948073D01*
X148929773Y-70948073D02*
X148834535Y-70900454D01*
X148834535Y-70900454D02*
X148786916Y-70805216D01*
X148786916Y-70805216D02*
X148786916Y-70567121D01*
X148786916Y-70567121D02*
X148739297Y-70471883D01*
X149167869Y-69995692D02*
X148167869Y-69995692D01*
X148786916Y-69900454D02*
X149167869Y-69614740D01*
X148501202Y-69614740D02*
X148882154Y-69995692D01*
D11*
X122604580Y-79302857D02*
X122652200Y-79350476D01*
X122652200Y-79350476D02*
X122699819Y-79493333D01*
X122699819Y-79493333D02*
X122699819Y-79588571D01*
X122699819Y-79588571D02*
X122652200Y-79731428D01*
X122652200Y-79731428D02*
X122556961Y-79826666D01*
X122556961Y-79826666D02*
X122461723Y-79874285D01*
X122461723Y-79874285D02*
X122271247Y-79921904D01*
X122271247Y-79921904D02*
X122128390Y-79921904D01*
X122128390Y-79921904D02*
X121937914Y-79874285D01*
X121937914Y-79874285D02*
X121842676Y-79826666D01*
X121842676Y-79826666D02*
X121747438Y-79731428D01*
X121747438Y-79731428D02*
X121699819Y-79588571D01*
X121699819Y-79588571D02*
X121699819Y-79493333D01*
X121699819Y-79493333D02*
X121747438Y-79350476D01*
X121747438Y-79350476D02*
X121795057Y-79302857D01*
X121795057Y-78921904D02*
X121747438Y-78874285D01*
X121747438Y-78874285D02*
X121699819Y-78779047D01*
X121699819Y-78779047D02*
X121699819Y-78540952D01*
X121699819Y-78540952D02*
X121747438Y-78445714D01*
X121747438Y-78445714D02*
X121795057Y-78398095D01*
X121795057Y-78398095D02*
X121890295Y-78350476D01*
X121890295Y-78350476D02*
X121985533Y-78350476D01*
X121985533Y-78350476D02*
X122128390Y-78398095D01*
X122128390Y-78398095D02*
X122699819Y-78969523D01*
X122699819Y-78969523D02*
X122699819Y-78350476D01*
X121795057Y-77969523D02*
X121747438Y-77921904D01*
X121747438Y-77921904D02*
X121699819Y-77826666D01*
X121699819Y-77826666D02*
X121699819Y-77588571D01*
X121699819Y-77588571D02*
X121747438Y-77493333D01*
X121747438Y-77493333D02*
X121795057Y-77445714D01*
X121795057Y-77445714D02*
X121890295Y-77398095D01*
X121890295Y-77398095D02*
X121985533Y-77398095D01*
X121985533Y-77398095D02*
X122128390Y-77445714D01*
X122128390Y-77445714D02*
X122699819Y-78017142D01*
X122699819Y-78017142D02*
X122699819Y-77398095D01*
X124054819Y-75638094D02*
X124864342Y-75638094D01*
X124864342Y-75638094D02*
X124959580Y-75590475D01*
X124959580Y-75590475D02*
X125007200Y-75542856D01*
X125007200Y-75542856D02*
X125054819Y-75447618D01*
X125054819Y-75447618D02*
X125054819Y-75257142D01*
X125054819Y-75257142D02*
X125007200Y-75161904D01*
X125007200Y-75161904D02*
X124959580Y-75114285D01*
X124959580Y-75114285D02*
X124864342Y-75066666D01*
X124864342Y-75066666D02*
X124054819Y-75066666D01*
X125054819Y-74066666D02*
X125054819Y-74638094D01*
X125054819Y-74352380D02*
X124054819Y-74352380D01*
X124054819Y-74352380D02*
X124197676Y-74447618D01*
X124197676Y-74447618D02*
X124292914Y-74542856D01*
X124292914Y-74542856D02*
X124340533Y-74638094D01*
X125054819Y-73114285D02*
X125054819Y-73685713D01*
X125054819Y-73399999D02*
X124054819Y-73399999D01*
X124054819Y-73399999D02*
X124197676Y-73495237D01*
X124197676Y-73495237D02*
X124292914Y-73590475D01*
X124292914Y-73590475D02*
X124340533Y-73685713D01*
X176854819Y-69133333D02*
X177569104Y-69133333D01*
X177569104Y-69133333D02*
X177711961Y-69180952D01*
X177711961Y-69180952D02*
X177807200Y-69276190D01*
X177807200Y-69276190D02*
X177854819Y-69419047D01*
X177854819Y-69419047D02*
X177854819Y-69514285D01*
X177854819Y-68133333D02*
X177854819Y-68704761D01*
X177854819Y-68419047D02*
X176854819Y-68419047D01*
X176854819Y-68419047D02*
X176997676Y-68514285D01*
X176997676Y-68514285D02*
X177092914Y-68609523D01*
X177092914Y-68609523D02*
X177140533Y-68704761D01*
X116454819Y-67266666D02*
X115978628Y-67599999D01*
X116454819Y-67838094D02*
X115454819Y-67838094D01*
X115454819Y-67838094D02*
X115454819Y-67457142D01*
X115454819Y-67457142D02*
X115502438Y-67361904D01*
X115502438Y-67361904D02*
X115550057Y-67314285D01*
X115550057Y-67314285D02*
X115645295Y-67266666D01*
X115645295Y-67266666D02*
X115788152Y-67266666D01*
X115788152Y-67266666D02*
X115883390Y-67314285D01*
X115883390Y-67314285D02*
X115931009Y-67361904D01*
X115931009Y-67361904D02*
X115978628Y-67457142D01*
X115978628Y-67457142D02*
X115978628Y-67838094D01*
X115454819Y-66933332D02*
X115454819Y-66266666D01*
X115454819Y-66266666D02*
X116454819Y-66695237D01*
X115807200Y-56433332D02*
X115854819Y-56290475D01*
X115854819Y-56290475D02*
X115854819Y-56052380D01*
X115854819Y-56052380D02*
X115807200Y-55957142D01*
X115807200Y-55957142D02*
X115759580Y-55909523D01*
X115759580Y-55909523D02*
X115664342Y-55861904D01*
X115664342Y-55861904D02*
X115569104Y-55861904D01*
X115569104Y-55861904D02*
X115473866Y-55909523D01*
X115473866Y-55909523D02*
X115426247Y-55957142D01*
X115426247Y-55957142D02*
X115378628Y-56052380D01*
X115378628Y-56052380D02*
X115331009Y-56242856D01*
X115331009Y-56242856D02*
X115283390Y-56338094D01*
X115283390Y-56338094D02*
X115235771Y-56385713D01*
X115235771Y-56385713D02*
X115140533Y-56433332D01*
X115140533Y-56433332D02*
X115045295Y-56433332D01*
X115045295Y-56433332D02*
X114950057Y-56385713D01*
X114950057Y-56385713D02*
X114902438Y-56338094D01*
X114902438Y-56338094D02*
X114854819Y-56242856D01*
X114854819Y-56242856D02*
X114854819Y-56004761D01*
X114854819Y-56004761D02*
X114902438Y-55861904D01*
X114854819Y-55528570D02*
X115854819Y-55290475D01*
X115854819Y-55290475D02*
X115140533Y-55099999D01*
X115140533Y-55099999D02*
X115854819Y-54909523D01*
X115854819Y-54909523D02*
X114854819Y-54671428D01*
X114950057Y-54338094D02*
X114902438Y-54290475D01*
X114902438Y-54290475D02*
X114854819Y-54195237D01*
X114854819Y-54195237D02*
X114854819Y-53957142D01*
X114854819Y-53957142D02*
X114902438Y-53861904D01*
X114902438Y-53861904D02*
X114950057Y-53814285D01*
X114950057Y-53814285D02*
X115045295Y-53766666D01*
X115045295Y-53766666D02*
X115140533Y-53766666D01*
X115140533Y-53766666D02*
X115283390Y-53814285D01*
X115283390Y-53814285D02*
X115854819Y-54385713D01*
X115854819Y-54385713D02*
X115854819Y-53766666D01*
X167954819Y-65642857D02*
X167478628Y-65976190D01*
X167954819Y-66214285D02*
X166954819Y-66214285D01*
X166954819Y-66214285D02*
X166954819Y-65833333D01*
X166954819Y-65833333D02*
X167002438Y-65738095D01*
X167002438Y-65738095D02*
X167050057Y-65690476D01*
X167050057Y-65690476D02*
X167145295Y-65642857D01*
X167145295Y-65642857D02*
X167288152Y-65642857D01*
X167288152Y-65642857D02*
X167383390Y-65690476D01*
X167383390Y-65690476D02*
X167431009Y-65738095D01*
X167431009Y-65738095D02*
X167478628Y-65833333D01*
X167478628Y-65833333D02*
X167478628Y-66214285D01*
X167954819Y-64690476D02*
X167954819Y-65261904D01*
X167954819Y-64976190D02*
X166954819Y-64976190D01*
X166954819Y-64976190D02*
X167097676Y-65071428D01*
X167097676Y-65071428D02*
X167192914Y-65166666D01*
X167192914Y-65166666D02*
X167240533Y-65261904D01*
X167954819Y-63738095D02*
X167954819Y-64309523D01*
X167954819Y-64023809D02*
X166954819Y-64023809D01*
X166954819Y-64023809D02*
X167097676Y-64119047D01*
X167097676Y-64119047D02*
X167192914Y-64214285D01*
X167192914Y-64214285D02*
X167240533Y-64309523D01*
X139254819Y-63961904D02*
X140064342Y-63961904D01*
X140064342Y-63961904D02*
X140159580Y-63914285D01*
X140159580Y-63914285D02*
X140207200Y-63866666D01*
X140207200Y-63866666D02*
X140254819Y-63771428D01*
X140254819Y-63771428D02*
X140254819Y-63580952D01*
X140254819Y-63580952D02*
X140207200Y-63485714D01*
X140207200Y-63485714D02*
X140159580Y-63438095D01*
X140159580Y-63438095D02*
X140064342Y-63390476D01*
X140064342Y-63390476D02*
X139254819Y-63390476D01*
X139254819Y-62485714D02*
X139254819Y-62676190D01*
X139254819Y-62676190D02*
X139302438Y-62771428D01*
X139302438Y-62771428D02*
X139350057Y-62819047D01*
X139350057Y-62819047D02*
X139492914Y-62914285D01*
X139492914Y-62914285D02*
X139683390Y-62961904D01*
X139683390Y-62961904D02*
X140064342Y-62961904D01*
X140064342Y-62961904D02*
X140159580Y-62914285D01*
X140159580Y-62914285D02*
X140207200Y-62866666D01*
X140207200Y-62866666D02*
X140254819Y-62771428D01*
X140254819Y-62771428D02*
X140254819Y-62580952D01*
X140254819Y-62580952D02*
X140207200Y-62485714D01*
X140207200Y-62485714D02*
X140159580Y-62438095D01*
X140159580Y-62438095D02*
X140064342Y-62390476D01*
X140064342Y-62390476D02*
X139826247Y-62390476D01*
X139826247Y-62390476D02*
X139731009Y-62438095D01*
X139731009Y-62438095D02*
X139683390Y-62485714D01*
X139683390Y-62485714D02*
X139635771Y-62580952D01*
X139635771Y-62580952D02*
X139635771Y-62771428D01*
X139635771Y-62771428D02*
X139683390Y-62866666D01*
X139683390Y-62866666D02*
X139731009Y-62914285D01*
X139731009Y-62914285D02*
X139826247Y-62961904D01*
X161750595Y-82679819D02*
X161750595Y-83489342D01*
X161750595Y-83489342D02*
X161798214Y-83584580D01*
X161798214Y-83584580D02*
X161845833Y-83632200D01*
X161845833Y-83632200D02*
X161941071Y-83679819D01*
X161941071Y-83679819D02*
X162131547Y-83679819D01*
X162131547Y-83679819D02*
X162226785Y-83632200D01*
X162226785Y-83632200D02*
X162274404Y-83584580D01*
X162274404Y-83584580D02*
X162322023Y-83489342D01*
X162322023Y-83489342D02*
X162322023Y-82679819D01*
X163322023Y-83679819D02*
X162750595Y-83679819D01*
X163036309Y-83679819D02*
X163036309Y-82679819D01*
X163036309Y-82679819D02*
X162941071Y-82822676D01*
X162941071Y-82822676D02*
X162845833Y-82917914D01*
X162845833Y-82917914D02*
X162750595Y-82965533D01*
X142439580Y-51432857D02*
X142487200Y-51480476D01*
X142487200Y-51480476D02*
X142534819Y-51623333D01*
X142534819Y-51623333D02*
X142534819Y-51718571D01*
X142534819Y-51718571D02*
X142487200Y-51861428D01*
X142487200Y-51861428D02*
X142391961Y-51956666D01*
X142391961Y-51956666D02*
X142296723Y-52004285D01*
X142296723Y-52004285D02*
X142106247Y-52051904D01*
X142106247Y-52051904D02*
X141963390Y-52051904D01*
X141963390Y-52051904D02*
X141772914Y-52004285D01*
X141772914Y-52004285D02*
X141677676Y-51956666D01*
X141677676Y-51956666D02*
X141582438Y-51861428D01*
X141582438Y-51861428D02*
X141534819Y-51718571D01*
X141534819Y-51718571D02*
X141534819Y-51623333D01*
X141534819Y-51623333D02*
X141582438Y-51480476D01*
X141582438Y-51480476D02*
X141630057Y-51432857D01*
X142534819Y-50480476D02*
X142534819Y-51051904D01*
X142534819Y-50766190D02*
X141534819Y-50766190D01*
X141534819Y-50766190D02*
X141677676Y-50861428D01*
X141677676Y-50861428D02*
X141772914Y-50956666D01*
X141772914Y-50956666D02*
X141820533Y-51051904D01*
X141963390Y-49909047D02*
X141915771Y-50004285D01*
X141915771Y-50004285D02*
X141868152Y-50051904D01*
X141868152Y-50051904D02*
X141772914Y-50099523D01*
X141772914Y-50099523D02*
X141725295Y-50099523D01*
X141725295Y-50099523D02*
X141630057Y-50051904D01*
X141630057Y-50051904D02*
X141582438Y-50004285D01*
X141582438Y-50004285D02*
X141534819Y-49909047D01*
X141534819Y-49909047D02*
X141534819Y-49718571D01*
X141534819Y-49718571D02*
X141582438Y-49623333D01*
X141582438Y-49623333D02*
X141630057Y-49575714D01*
X141630057Y-49575714D02*
X141725295Y-49528095D01*
X141725295Y-49528095D02*
X141772914Y-49528095D01*
X141772914Y-49528095D02*
X141868152Y-49575714D01*
X141868152Y-49575714D02*
X141915771Y-49623333D01*
X141915771Y-49623333D02*
X141963390Y-49718571D01*
X141963390Y-49718571D02*
X141963390Y-49909047D01*
X141963390Y-49909047D02*
X142011009Y-50004285D01*
X142011009Y-50004285D02*
X142058628Y-50051904D01*
X142058628Y-50051904D02*
X142153866Y-50099523D01*
X142153866Y-50099523D02*
X142344342Y-50099523D01*
X142344342Y-50099523D02*
X142439580Y-50051904D01*
X142439580Y-50051904D02*
X142487200Y-50004285D01*
X142487200Y-50004285D02*
X142534819Y-49909047D01*
X142534819Y-49909047D02*
X142534819Y-49718571D01*
X142534819Y-49718571D02*
X142487200Y-49623333D01*
X142487200Y-49623333D02*
X142439580Y-49575714D01*
X142439580Y-49575714D02*
X142344342Y-49528095D01*
X142344342Y-49528095D02*
X142153866Y-49528095D01*
X142153866Y-49528095D02*
X142058628Y-49575714D01*
X142058628Y-49575714D02*
X142011009Y-49623333D01*
X142011009Y-49623333D02*
X141963390Y-49718571D01*
X157533333Y-90459580D02*
X157485714Y-90507200D01*
X157485714Y-90507200D02*
X157342857Y-90554819D01*
X157342857Y-90554819D02*
X157247619Y-90554819D01*
X157247619Y-90554819D02*
X157104762Y-90507200D01*
X157104762Y-90507200D02*
X157009524Y-90411961D01*
X157009524Y-90411961D02*
X156961905Y-90316723D01*
X156961905Y-90316723D02*
X156914286Y-90126247D01*
X156914286Y-90126247D02*
X156914286Y-89983390D01*
X156914286Y-89983390D02*
X156961905Y-89792914D01*
X156961905Y-89792914D02*
X157009524Y-89697676D01*
X157009524Y-89697676D02*
X157104762Y-89602438D01*
X157104762Y-89602438D02*
X157247619Y-89554819D01*
X157247619Y-89554819D02*
X157342857Y-89554819D01*
X157342857Y-89554819D02*
X157485714Y-89602438D01*
X157485714Y-89602438D02*
X157533333Y-89650057D01*
X158009524Y-90554819D02*
X158200000Y-90554819D01*
X158200000Y-90554819D02*
X158295238Y-90507200D01*
X158295238Y-90507200D02*
X158342857Y-90459580D01*
X158342857Y-90459580D02*
X158438095Y-90316723D01*
X158438095Y-90316723D02*
X158485714Y-90126247D01*
X158485714Y-90126247D02*
X158485714Y-89745295D01*
X158485714Y-89745295D02*
X158438095Y-89650057D01*
X158438095Y-89650057D02*
X158390476Y-89602438D01*
X158390476Y-89602438D02*
X158295238Y-89554819D01*
X158295238Y-89554819D02*
X158104762Y-89554819D01*
X158104762Y-89554819D02*
X158009524Y-89602438D01*
X158009524Y-89602438D02*
X157961905Y-89650057D01*
X157961905Y-89650057D02*
X157914286Y-89745295D01*
X157914286Y-89745295D02*
X157914286Y-89983390D01*
X157914286Y-89983390D02*
X157961905Y-90078628D01*
X157961905Y-90078628D02*
X158009524Y-90126247D01*
X158009524Y-90126247D02*
X158104762Y-90173866D01*
X158104762Y-90173866D02*
X158295238Y-90173866D01*
X158295238Y-90173866D02*
X158390476Y-90126247D01*
X158390476Y-90126247D02*
X158438095Y-90078628D01*
X158438095Y-90078628D02*
X158485714Y-89983390D01*
X119779580Y-67722857D02*
X119827200Y-67770476D01*
X119827200Y-67770476D02*
X119874819Y-67913333D01*
X119874819Y-67913333D02*
X119874819Y-68008571D01*
X119874819Y-68008571D02*
X119827200Y-68151428D01*
X119827200Y-68151428D02*
X119731961Y-68246666D01*
X119731961Y-68246666D02*
X119636723Y-68294285D01*
X119636723Y-68294285D02*
X119446247Y-68341904D01*
X119446247Y-68341904D02*
X119303390Y-68341904D01*
X119303390Y-68341904D02*
X119112914Y-68294285D01*
X119112914Y-68294285D02*
X119017676Y-68246666D01*
X119017676Y-68246666D02*
X118922438Y-68151428D01*
X118922438Y-68151428D02*
X118874819Y-68008571D01*
X118874819Y-68008571D02*
X118874819Y-67913333D01*
X118874819Y-67913333D02*
X118922438Y-67770476D01*
X118922438Y-67770476D02*
X118970057Y-67722857D01*
X119874819Y-66770476D02*
X119874819Y-67341904D01*
X119874819Y-67056190D02*
X118874819Y-67056190D01*
X118874819Y-67056190D02*
X119017676Y-67151428D01*
X119017676Y-67151428D02*
X119112914Y-67246666D01*
X119112914Y-67246666D02*
X119160533Y-67341904D01*
X118874819Y-66437142D02*
X118874819Y-65818095D01*
X118874819Y-65818095D02*
X119255771Y-66151428D01*
X119255771Y-66151428D02*
X119255771Y-66008571D01*
X119255771Y-66008571D02*
X119303390Y-65913333D01*
X119303390Y-65913333D02*
X119351009Y-65865714D01*
X119351009Y-65865714D02*
X119446247Y-65818095D01*
X119446247Y-65818095D02*
X119684342Y-65818095D01*
X119684342Y-65818095D02*
X119779580Y-65865714D01*
X119779580Y-65865714D02*
X119827200Y-65913333D01*
X119827200Y-65913333D02*
X119874819Y-66008571D01*
X119874819Y-66008571D02*
X119874819Y-66294285D01*
X119874819Y-66294285D02*
X119827200Y-66389523D01*
X119827200Y-66389523D02*
X119779580Y-66437142D01*
X119233333Y-79354819D02*
X118900000Y-78878628D01*
X118661905Y-79354819D02*
X118661905Y-78354819D01*
X118661905Y-78354819D02*
X119042857Y-78354819D01*
X119042857Y-78354819D02*
X119138095Y-78402438D01*
X119138095Y-78402438D02*
X119185714Y-78450057D01*
X119185714Y-78450057D02*
X119233333Y-78545295D01*
X119233333Y-78545295D02*
X119233333Y-78688152D01*
X119233333Y-78688152D02*
X119185714Y-78783390D01*
X119185714Y-78783390D02*
X119138095Y-78831009D01*
X119138095Y-78831009D02*
X119042857Y-78878628D01*
X119042857Y-78878628D02*
X118661905Y-78878628D01*
X119709524Y-79354819D02*
X119900000Y-79354819D01*
X119900000Y-79354819D02*
X119995238Y-79307200D01*
X119995238Y-79307200D02*
X120042857Y-79259580D01*
X120042857Y-79259580D02*
X120138095Y-79116723D01*
X120138095Y-79116723D02*
X120185714Y-78926247D01*
X120185714Y-78926247D02*
X120185714Y-78545295D01*
X120185714Y-78545295D02*
X120138095Y-78450057D01*
X120138095Y-78450057D02*
X120090476Y-78402438D01*
X120090476Y-78402438D02*
X119995238Y-78354819D01*
X119995238Y-78354819D02*
X119804762Y-78354819D01*
X119804762Y-78354819D02*
X119709524Y-78402438D01*
X119709524Y-78402438D02*
X119661905Y-78450057D01*
X119661905Y-78450057D02*
X119614286Y-78545295D01*
X119614286Y-78545295D02*
X119614286Y-78783390D01*
X119614286Y-78783390D02*
X119661905Y-78878628D01*
X119661905Y-78878628D02*
X119709524Y-78926247D01*
X119709524Y-78926247D02*
X119804762Y-78973866D01*
X119804762Y-78973866D02*
X119995238Y-78973866D01*
X119995238Y-78973866D02*
X120090476Y-78926247D01*
X120090476Y-78926247D02*
X120138095Y-78878628D01*
X120138095Y-78878628D02*
X120185714Y-78783390D01*
X176762319Y-56850833D02*
X177476604Y-56850833D01*
X177476604Y-56850833D02*
X177619461Y-56898452D01*
X177619461Y-56898452D02*
X177714700Y-56993690D01*
X177714700Y-56993690D02*
X177762319Y-57136547D01*
X177762319Y-57136547D02*
X177762319Y-57231785D01*
X176857557Y-56422261D02*
X176809938Y-56374642D01*
X176809938Y-56374642D02*
X176762319Y-56279404D01*
X176762319Y-56279404D02*
X176762319Y-56041309D01*
X176762319Y-56041309D02*
X176809938Y-55946071D01*
X176809938Y-55946071D02*
X176857557Y-55898452D01*
X176857557Y-55898452D02*
X176952795Y-55850833D01*
X176952795Y-55850833D02*
X177048033Y-55850833D01*
X177048033Y-55850833D02*
X177190890Y-55898452D01*
X177190890Y-55898452D02*
X177762319Y-56469880D01*
X177762319Y-56469880D02*
X177762319Y-55850833D01*
X152933333Y-49354819D02*
X152457143Y-49354819D01*
X152457143Y-49354819D02*
X152457143Y-48354819D01*
X153790476Y-49354819D02*
X153219048Y-49354819D01*
X153504762Y-49354819D02*
X153504762Y-48354819D01*
X153504762Y-48354819D02*
X153409524Y-48497676D01*
X153409524Y-48497676D02*
X153314286Y-48592914D01*
X153314286Y-48592914D02*
X153219048Y-48640533D01*
X163159580Y-52942857D02*
X163207200Y-52990476D01*
X163207200Y-52990476D02*
X163254819Y-53133333D01*
X163254819Y-53133333D02*
X163254819Y-53228571D01*
X163254819Y-53228571D02*
X163207200Y-53371428D01*
X163207200Y-53371428D02*
X163111961Y-53466666D01*
X163111961Y-53466666D02*
X163016723Y-53514285D01*
X163016723Y-53514285D02*
X162826247Y-53561904D01*
X162826247Y-53561904D02*
X162683390Y-53561904D01*
X162683390Y-53561904D02*
X162492914Y-53514285D01*
X162492914Y-53514285D02*
X162397676Y-53466666D01*
X162397676Y-53466666D02*
X162302438Y-53371428D01*
X162302438Y-53371428D02*
X162254819Y-53228571D01*
X162254819Y-53228571D02*
X162254819Y-53133333D01*
X162254819Y-53133333D02*
X162302438Y-52990476D01*
X162302438Y-52990476D02*
X162350057Y-52942857D01*
X163254819Y-51990476D02*
X163254819Y-52561904D01*
X163254819Y-52276190D02*
X162254819Y-52276190D01*
X162254819Y-52276190D02*
X162397676Y-52371428D01*
X162397676Y-52371428D02*
X162492914Y-52466666D01*
X162492914Y-52466666D02*
X162540533Y-52561904D01*
X162350057Y-51609523D02*
X162302438Y-51561904D01*
X162302438Y-51561904D02*
X162254819Y-51466666D01*
X162254819Y-51466666D02*
X162254819Y-51228571D01*
X162254819Y-51228571D02*
X162302438Y-51133333D01*
X162302438Y-51133333D02*
X162350057Y-51085714D01*
X162350057Y-51085714D02*
X162445295Y-51038095D01*
X162445295Y-51038095D02*
X162540533Y-51038095D01*
X162540533Y-51038095D02*
X162683390Y-51085714D01*
X162683390Y-51085714D02*
X163254819Y-51657142D01*
X163254819Y-51657142D02*
X163254819Y-51038095D01*
X155733333Y-83059580D02*
X155685714Y-83107200D01*
X155685714Y-83107200D02*
X155542857Y-83154819D01*
X155542857Y-83154819D02*
X155447619Y-83154819D01*
X155447619Y-83154819D02*
X155304762Y-83107200D01*
X155304762Y-83107200D02*
X155209524Y-83011961D01*
X155209524Y-83011961D02*
X155161905Y-82916723D01*
X155161905Y-82916723D02*
X155114286Y-82726247D01*
X155114286Y-82726247D02*
X155114286Y-82583390D01*
X155114286Y-82583390D02*
X155161905Y-82392914D01*
X155161905Y-82392914D02*
X155209524Y-82297676D01*
X155209524Y-82297676D02*
X155304762Y-82202438D01*
X155304762Y-82202438D02*
X155447619Y-82154819D01*
X155447619Y-82154819D02*
X155542857Y-82154819D01*
X155542857Y-82154819D02*
X155685714Y-82202438D01*
X155685714Y-82202438D02*
X155733333Y-82250057D01*
X156114286Y-82250057D02*
X156161905Y-82202438D01*
X156161905Y-82202438D02*
X156257143Y-82154819D01*
X156257143Y-82154819D02*
X156495238Y-82154819D01*
X156495238Y-82154819D02*
X156590476Y-82202438D01*
X156590476Y-82202438D02*
X156638095Y-82250057D01*
X156638095Y-82250057D02*
X156685714Y-82345295D01*
X156685714Y-82345295D02*
X156685714Y-82440533D01*
X156685714Y-82440533D02*
X156638095Y-82583390D01*
X156638095Y-82583390D02*
X156066667Y-83154819D01*
X156066667Y-83154819D02*
X156685714Y-83154819D01*
X153633333Y-83059580D02*
X153585714Y-83107200D01*
X153585714Y-83107200D02*
X153442857Y-83154819D01*
X153442857Y-83154819D02*
X153347619Y-83154819D01*
X153347619Y-83154819D02*
X153204762Y-83107200D01*
X153204762Y-83107200D02*
X153109524Y-83011961D01*
X153109524Y-83011961D02*
X153061905Y-82916723D01*
X153061905Y-82916723D02*
X153014286Y-82726247D01*
X153014286Y-82726247D02*
X153014286Y-82583390D01*
X153014286Y-82583390D02*
X153061905Y-82392914D01*
X153061905Y-82392914D02*
X153109524Y-82297676D01*
X153109524Y-82297676D02*
X153204762Y-82202438D01*
X153204762Y-82202438D02*
X153347619Y-82154819D01*
X153347619Y-82154819D02*
X153442857Y-82154819D01*
X153442857Y-82154819D02*
X153585714Y-82202438D01*
X153585714Y-82202438D02*
X153633333Y-82250057D01*
X154585714Y-83154819D02*
X154014286Y-83154819D01*
X154300000Y-83154819D02*
X154300000Y-82154819D01*
X154300000Y-82154819D02*
X154204762Y-82297676D01*
X154204762Y-82297676D02*
X154109524Y-82392914D01*
X154109524Y-82392914D02*
X154014286Y-82440533D01*
X165957142Y-59959580D02*
X165909523Y-60007200D01*
X165909523Y-60007200D02*
X165766666Y-60054819D01*
X165766666Y-60054819D02*
X165671428Y-60054819D01*
X165671428Y-60054819D02*
X165528571Y-60007200D01*
X165528571Y-60007200D02*
X165433333Y-59911961D01*
X165433333Y-59911961D02*
X165385714Y-59816723D01*
X165385714Y-59816723D02*
X165338095Y-59626247D01*
X165338095Y-59626247D02*
X165338095Y-59483390D01*
X165338095Y-59483390D02*
X165385714Y-59292914D01*
X165385714Y-59292914D02*
X165433333Y-59197676D01*
X165433333Y-59197676D02*
X165528571Y-59102438D01*
X165528571Y-59102438D02*
X165671428Y-59054819D01*
X165671428Y-59054819D02*
X165766666Y-59054819D01*
X165766666Y-59054819D02*
X165909523Y-59102438D01*
X165909523Y-59102438D02*
X165957142Y-59150057D01*
X166909523Y-60054819D02*
X166338095Y-60054819D01*
X166623809Y-60054819D02*
X166623809Y-59054819D01*
X166623809Y-59054819D02*
X166528571Y-59197676D01*
X166528571Y-59197676D02*
X166433333Y-59292914D01*
X166433333Y-59292914D02*
X166338095Y-59340533D01*
X167861904Y-60054819D02*
X167290476Y-60054819D01*
X167576190Y-60054819D02*
X167576190Y-59054819D01*
X167576190Y-59054819D02*
X167480952Y-59197676D01*
X167480952Y-59197676D02*
X167385714Y-59292914D01*
X167385714Y-59292914D02*
X167290476Y-59340533D01*
X142439580Y-67332857D02*
X142487200Y-67380476D01*
X142487200Y-67380476D02*
X142534819Y-67523333D01*
X142534819Y-67523333D02*
X142534819Y-67618571D01*
X142534819Y-67618571D02*
X142487200Y-67761428D01*
X142487200Y-67761428D02*
X142391961Y-67856666D01*
X142391961Y-67856666D02*
X142296723Y-67904285D01*
X142296723Y-67904285D02*
X142106247Y-67951904D01*
X142106247Y-67951904D02*
X141963390Y-67951904D01*
X141963390Y-67951904D02*
X141772914Y-67904285D01*
X141772914Y-67904285D02*
X141677676Y-67856666D01*
X141677676Y-67856666D02*
X141582438Y-67761428D01*
X141582438Y-67761428D02*
X141534819Y-67618571D01*
X141534819Y-67618571D02*
X141534819Y-67523333D01*
X141534819Y-67523333D02*
X141582438Y-67380476D01*
X141582438Y-67380476D02*
X141630057Y-67332857D01*
X142534819Y-66380476D02*
X142534819Y-66951904D01*
X142534819Y-66666190D02*
X141534819Y-66666190D01*
X141534819Y-66666190D02*
X141677676Y-66761428D01*
X141677676Y-66761428D02*
X141772914Y-66856666D01*
X141772914Y-66856666D02*
X141820533Y-66951904D01*
X141534819Y-65523333D02*
X141534819Y-65713809D01*
X141534819Y-65713809D02*
X141582438Y-65809047D01*
X141582438Y-65809047D02*
X141630057Y-65856666D01*
X141630057Y-65856666D02*
X141772914Y-65951904D01*
X141772914Y-65951904D02*
X141963390Y-65999523D01*
X141963390Y-65999523D02*
X142344342Y-65999523D01*
X142344342Y-65999523D02*
X142439580Y-65951904D01*
X142439580Y-65951904D02*
X142487200Y-65904285D01*
X142487200Y-65904285D02*
X142534819Y-65809047D01*
X142534819Y-65809047D02*
X142534819Y-65618571D01*
X142534819Y-65618571D02*
X142487200Y-65523333D01*
X142487200Y-65523333D02*
X142439580Y-65475714D01*
X142439580Y-65475714D02*
X142344342Y-65428095D01*
X142344342Y-65428095D02*
X142106247Y-65428095D01*
X142106247Y-65428095D02*
X142011009Y-65475714D01*
X142011009Y-65475714D02*
X141963390Y-65523333D01*
X141963390Y-65523333D02*
X141915771Y-65618571D01*
X141915771Y-65618571D02*
X141915771Y-65809047D01*
X141915771Y-65809047D02*
X141963390Y-65904285D01*
X141963390Y-65904285D02*
X142011009Y-65951904D01*
X142011009Y-65951904D02*
X142106247Y-65999523D01*
X124154819Y-51961904D02*
X124964342Y-51961904D01*
X124964342Y-51961904D02*
X125059580Y-51914285D01*
X125059580Y-51914285D02*
X125107200Y-51866666D01*
X125107200Y-51866666D02*
X125154819Y-51771428D01*
X125154819Y-51771428D02*
X125154819Y-51580952D01*
X125154819Y-51580952D02*
X125107200Y-51485714D01*
X125107200Y-51485714D02*
X125059580Y-51438095D01*
X125059580Y-51438095D02*
X124964342Y-51390476D01*
X124964342Y-51390476D02*
X124154819Y-51390476D01*
X124583390Y-50771428D02*
X124535771Y-50866666D01*
X124535771Y-50866666D02*
X124488152Y-50914285D01*
X124488152Y-50914285D02*
X124392914Y-50961904D01*
X124392914Y-50961904D02*
X124345295Y-50961904D01*
X124345295Y-50961904D02*
X124250057Y-50914285D01*
X124250057Y-50914285D02*
X124202438Y-50866666D01*
X124202438Y-50866666D02*
X124154819Y-50771428D01*
X124154819Y-50771428D02*
X124154819Y-50580952D01*
X124154819Y-50580952D02*
X124202438Y-50485714D01*
X124202438Y-50485714D02*
X124250057Y-50438095D01*
X124250057Y-50438095D02*
X124345295Y-50390476D01*
X124345295Y-50390476D02*
X124392914Y-50390476D01*
X124392914Y-50390476D02*
X124488152Y-50438095D01*
X124488152Y-50438095D02*
X124535771Y-50485714D01*
X124535771Y-50485714D02*
X124583390Y-50580952D01*
X124583390Y-50580952D02*
X124583390Y-50771428D01*
X124583390Y-50771428D02*
X124631009Y-50866666D01*
X124631009Y-50866666D02*
X124678628Y-50914285D01*
X124678628Y-50914285D02*
X124773866Y-50961904D01*
X124773866Y-50961904D02*
X124964342Y-50961904D01*
X124964342Y-50961904D02*
X125059580Y-50914285D01*
X125059580Y-50914285D02*
X125107200Y-50866666D01*
X125107200Y-50866666D02*
X125154819Y-50771428D01*
X125154819Y-50771428D02*
X125154819Y-50580952D01*
X125154819Y-50580952D02*
X125107200Y-50485714D01*
X125107200Y-50485714D02*
X125059580Y-50438095D01*
X125059580Y-50438095D02*
X124964342Y-50390476D01*
X124964342Y-50390476D02*
X124773866Y-50390476D01*
X124773866Y-50390476D02*
X124678628Y-50438095D01*
X124678628Y-50438095D02*
X124631009Y-50485714D01*
X124631009Y-50485714D02*
X124583390Y-50580952D01*
X118857142Y-48854819D02*
X118523809Y-48378628D01*
X118285714Y-48854819D02*
X118285714Y-47854819D01*
X118285714Y-47854819D02*
X118666666Y-47854819D01*
X118666666Y-47854819D02*
X118761904Y-47902438D01*
X118761904Y-47902438D02*
X118809523Y-47950057D01*
X118809523Y-47950057D02*
X118857142Y-48045295D01*
X118857142Y-48045295D02*
X118857142Y-48188152D01*
X118857142Y-48188152D02*
X118809523Y-48283390D01*
X118809523Y-48283390D02*
X118761904Y-48331009D01*
X118761904Y-48331009D02*
X118666666Y-48378628D01*
X118666666Y-48378628D02*
X118285714Y-48378628D01*
X119809523Y-48854819D02*
X119238095Y-48854819D01*
X119523809Y-48854819D02*
X119523809Y-47854819D01*
X119523809Y-47854819D02*
X119428571Y-47997676D01*
X119428571Y-47997676D02*
X119333333Y-48092914D01*
X119333333Y-48092914D02*
X119238095Y-48140533D01*
X120428571Y-47854819D02*
X120523809Y-47854819D01*
X120523809Y-47854819D02*
X120619047Y-47902438D01*
X120619047Y-47902438D02*
X120666666Y-47950057D01*
X120666666Y-47950057D02*
X120714285Y-48045295D01*
X120714285Y-48045295D02*
X120761904Y-48235771D01*
X120761904Y-48235771D02*
X120761904Y-48473866D01*
X120761904Y-48473866D02*
X120714285Y-48664342D01*
X120714285Y-48664342D02*
X120666666Y-48759580D01*
X120666666Y-48759580D02*
X120619047Y-48807200D01*
X120619047Y-48807200D02*
X120523809Y-48854819D01*
X120523809Y-48854819D02*
X120428571Y-48854819D01*
X120428571Y-48854819D02*
X120333333Y-48807200D01*
X120333333Y-48807200D02*
X120285714Y-48759580D01*
X120285714Y-48759580D02*
X120238095Y-48664342D01*
X120238095Y-48664342D02*
X120190476Y-48473866D01*
X120190476Y-48473866D02*
X120190476Y-48235771D01*
X120190476Y-48235771D02*
X120238095Y-48045295D01*
X120238095Y-48045295D02*
X120285714Y-47950057D01*
X120285714Y-47950057D02*
X120333333Y-47902438D01*
X120333333Y-47902438D02*
X120428571Y-47854819D01*
X139254819Y-72061904D02*
X140064342Y-72061904D01*
X140064342Y-72061904D02*
X140159580Y-72014285D01*
X140159580Y-72014285D02*
X140207200Y-71966666D01*
X140207200Y-71966666D02*
X140254819Y-71871428D01*
X140254819Y-71871428D02*
X140254819Y-71680952D01*
X140254819Y-71680952D02*
X140207200Y-71585714D01*
X140207200Y-71585714D02*
X140159580Y-71538095D01*
X140159580Y-71538095D02*
X140064342Y-71490476D01*
X140064342Y-71490476D02*
X139254819Y-71490476D01*
X139254819Y-70538095D02*
X139254819Y-71014285D01*
X139254819Y-71014285D02*
X139731009Y-71061904D01*
X139731009Y-71061904D02*
X139683390Y-71014285D01*
X139683390Y-71014285D02*
X139635771Y-70919047D01*
X139635771Y-70919047D02*
X139635771Y-70680952D01*
X139635771Y-70680952D02*
X139683390Y-70585714D01*
X139683390Y-70585714D02*
X139731009Y-70538095D01*
X139731009Y-70538095D02*
X139826247Y-70490476D01*
X139826247Y-70490476D02*
X140064342Y-70490476D01*
X140064342Y-70490476D02*
X140159580Y-70538095D01*
X140159580Y-70538095D02*
X140207200Y-70585714D01*
X140207200Y-70585714D02*
X140254819Y-70680952D01*
X140254819Y-70680952D02*
X140254819Y-70919047D01*
X140254819Y-70919047D02*
X140207200Y-71014285D01*
X140207200Y-71014285D02*
X140159580Y-71061904D01*
X142439580Y-59332857D02*
X142487200Y-59380476D01*
X142487200Y-59380476D02*
X142534819Y-59523333D01*
X142534819Y-59523333D02*
X142534819Y-59618571D01*
X142534819Y-59618571D02*
X142487200Y-59761428D01*
X142487200Y-59761428D02*
X142391961Y-59856666D01*
X142391961Y-59856666D02*
X142296723Y-59904285D01*
X142296723Y-59904285D02*
X142106247Y-59951904D01*
X142106247Y-59951904D02*
X141963390Y-59951904D01*
X141963390Y-59951904D02*
X141772914Y-59904285D01*
X141772914Y-59904285D02*
X141677676Y-59856666D01*
X141677676Y-59856666D02*
X141582438Y-59761428D01*
X141582438Y-59761428D02*
X141534819Y-59618571D01*
X141534819Y-59618571D02*
X141534819Y-59523333D01*
X141534819Y-59523333D02*
X141582438Y-59380476D01*
X141582438Y-59380476D02*
X141630057Y-59332857D01*
X142534819Y-58380476D02*
X142534819Y-58951904D01*
X142534819Y-58666190D02*
X141534819Y-58666190D01*
X141534819Y-58666190D02*
X141677676Y-58761428D01*
X141677676Y-58761428D02*
X141772914Y-58856666D01*
X141772914Y-58856666D02*
X141820533Y-58951904D01*
X141534819Y-58047142D02*
X141534819Y-57380476D01*
X141534819Y-57380476D02*
X142534819Y-57809047D01*
X167933333Y-84359580D02*
X167885714Y-84407200D01*
X167885714Y-84407200D02*
X167742857Y-84454819D01*
X167742857Y-84454819D02*
X167647619Y-84454819D01*
X167647619Y-84454819D02*
X167504762Y-84407200D01*
X167504762Y-84407200D02*
X167409524Y-84311961D01*
X167409524Y-84311961D02*
X167361905Y-84216723D01*
X167361905Y-84216723D02*
X167314286Y-84026247D01*
X167314286Y-84026247D02*
X167314286Y-83883390D01*
X167314286Y-83883390D02*
X167361905Y-83692914D01*
X167361905Y-83692914D02*
X167409524Y-83597676D01*
X167409524Y-83597676D02*
X167504762Y-83502438D01*
X167504762Y-83502438D02*
X167647619Y-83454819D01*
X167647619Y-83454819D02*
X167742857Y-83454819D01*
X167742857Y-83454819D02*
X167885714Y-83502438D01*
X167885714Y-83502438D02*
X167933333Y-83550057D01*
X168838095Y-83454819D02*
X168361905Y-83454819D01*
X168361905Y-83454819D02*
X168314286Y-83931009D01*
X168314286Y-83931009D02*
X168361905Y-83883390D01*
X168361905Y-83883390D02*
X168457143Y-83835771D01*
X168457143Y-83835771D02*
X168695238Y-83835771D01*
X168695238Y-83835771D02*
X168790476Y-83883390D01*
X168790476Y-83883390D02*
X168838095Y-83931009D01*
X168838095Y-83931009D02*
X168885714Y-84026247D01*
X168885714Y-84026247D02*
X168885714Y-84264342D01*
X168885714Y-84264342D02*
X168838095Y-84359580D01*
X168838095Y-84359580D02*
X168790476Y-84407200D01*
X168790476Y-84407200D02*
X168695238Y-84454819D01*
X168695238Y-84454819D02*
X168457143Y-84454819D01*
X168457143Y-84454819D02*
X168361905Y-84407200D01*
X168361905Y-84407200D02*
X168314286Y-84359580D01*
X142857142Y-53654819D02*
X142523809Y-53178628D01*
X142285714Y-53654819D02*
X142285714Y-52654819D01*
X142285714Y-52654819D02*
X142666666Y-52654819D01*
X142666666Y-52654819D02*
X142761904Y-52702438D01*
X142761904Y-52702438D02*
X142809523Y-52750057D01*
X142809523Y-52750057D02*
X142857142Y-52845295D01*
X142857142Y-52845295D02*
X142857142Y-52988152D01*
X142857142Y-52988152D02*
X142809523Y-53083390D01*
X142809523Y-53083390D02*
X142761904Y-53131009D01*
X142761904Y-53131009D02*
X142666666Y-53178628D01*
X142666666Y-53178628D02*
X142285714Y-53178628D01*
X143809523Y-53654819D02*
X143238095Y-53654819D01*
X143523809Y-53654819D02*
X143523809Y-52654819D01*
X143523809Y-52654819D02*
X143428571Y-52797676D01*
X143428571Y-52797676D02*
X143333333Y-52892914D01*
X143333333Y-52892914D02*
X143238095Y-52940533D01*
X144190476Y-52750057D02*
X144238095Y-52702438D01*
X144238095Y-52702438D02*
X144333333Y-52654819D01*
X144333333Y-52654819D02*
X144571428Y-52654819D01*
X144571428Y-52654819D02*
X144666666Y-52702438D01*
X144666666Y-52702438D02*
X144714285Y-52750057D01*
X144714285Y-52750057D02*
X144761904Y-52845295D01*
X144761904Y-52845295D02*
X144761904Y-52940533D01*
X144761904Y-52940533D02*
X144714285Y-53083390D01*
X144714285Y-53083390D02*
X144142857Y-53654819D01*
X144142857Y-53654819D02*
X144761904Y-53654819D01*
X152166666Y-85954819D02*
X152166666Y-86669104D01*
X152166666Y-86669104D02*
X152119047Y-86811961D01*
X152119047Y-86811961D02*
X152023809Y-86907200D01*
X152023809Y-86907200D02*
X151880952Y-86954819D01*
X151880952Y-86954819D02*
X151785714Y-86954819D01*
X152547619Y-85954819D02*
X153214285Y-85954819D01*
X153214285Y-85954819D02*
X152785714Y-86954819D01*
X139154819Y-56161904D02*
X139964342Y-56161904D01*
X139964342Y-56161904D02*
X140059580Y-56114285D01*
X140059580Y-56114285D02*
X140107200Y-56066666D01*
X140107200Y-56066666D02*
X140154819Y-55971428D01*
X140154819Y-55971428D02*
X140154819Y-55780952D01*
X140154819Y-55780952D02*
X140107200Y-55685714D01*
X140107200Y-55685714D02*
X140059580Y-55638095D01*
X140059580Y-55638095D02*
X139964342Y-55590476D01*
X139964342Y-55590476D02*
X139154819Y-55590476D01*
X139154819Y-55209523D02*
X139154819Y-54542857D01*
X139154819Y-54542857D02*
X140154819Y-54971428D01*
X173333333Y-91739580D02*
X173285714Y-91787200D01*
X173285714Y-91787200D02*
X173142857Y-91834819D01*
X173142857Y-91834819D02*
X173047619Y-91834819D01*
X173047619Y-91834819D02*
X172904762Y-91787200D01*
X172904762Y-91787200D02*
X172809524Y-91691961D01*
X172809524Y-91691961D02*
X172761905Y-91596723D01*
X172761905Y-91596723D02*
X172714286Y-91406247D01*
X172714286Y-91406247D02*
X172714286Y-91263390D01*
X172714286Y-91263390D02*
X172761905Y-91072914D01*
X172761905Y-91072914D02*
X172809524Y-90977676D01*
X172809524Y-90977676D02*
X172904762Y-90882438D01*
X172904762Y-90882438D02*
X173047619Y-90834819D01*
X173047619Y-90834819D02*
X173142857Y-90834819D01*
X173142857Y-90834819D02*
X173285714Y-90882438D01*
X173285714Y-90882438D02*
X173333333Y-90930057D01*
X173904762Y-91263390D02*
X173809524Y-91215771D01*
X173809524Y-91215771D02*
X173761905Y-91168152D01*
X173761905Y-91168152D02*
X173714286Y-91072914D01*
X173714286Y-91072914D02*
X173714286Y-91025295D01*
X173714286Y-91025295D02*
X173761905Y-90930057D01*
X173761905Y-90930057D02*
X173809524Y-90882438D01*
X173809524Y-90882438D02*
X173904762Y-90834819D01*
X173904762Y-90834819D02*
X174095238Y-90834819D01*
X174095238Y-90834819D02*
X174190476Y-90882438D01*
X174190476Y-90882438D02*
X174238095Y-90930057D01*
X174238095Y-90930057D02*
X174285714Y-91025295D01*
X174285714Y-91025295D02*
X174285714Y-91072914D01*
X174285714Y-91072914D02*
X174238095Y-91168152D01*
X174238095Y-91168152D02*
X174190476Y-91215771D01*
X174190476Y-91215771D02*
X174095238Y-91263390D01*
X174095238Y-91263390D02*
X173904762Y-91263390D01*
X173904762Y-91263390D02*
X173809524Y-91311009D01*
X173809524Y-91311009D02*
X173761905Y-91358628D01*
X173761905Y-91358628D02*
X173714286Y-91453866D01*
X173714286Y-91453866D02*
X173714286Y-91644342D01*
X173714286Y-91644342D02*
X173761905Y-91739580D01*
X173761905Y-91739580D02*
X173809524Y-91787200D01*
X173809524Y-91787200D02*
X173904762Y-91834819D01*
X173904762Y-91834819D02*
X174095238Y-91834819D01*
X174095238Y-91834819D02*
X174190476Y-91787200D01*
X174190476Y-91787200D02*
X174238095Y-91739580D01*
X174238095Y-91739580D02*
X174285714Y-91644342D01*
X174285714Y-91644342D02*
X174285714Y-91453866D01*
X174285714Y-91453866D02*
X174238095Y-91358628D01*
X174238095Y-91358628D02*
X174190476Y-91311009D01*
X174190476Y-91311009D02*
X174095238Y-91263390D01*
X116554819Y-60766666D02*
X116078628Y-61099999D01*
X116554819Y-61338094D02*
X115554819Y-61338094D01*
X115554819Y-61338094D02*
X115554819Y-60957142D01*
X115554819Y-60957142D02*
X115602438Y-60861904D01*
X115602438Y-60861904D02*
X115650057Y-60814285D01*
X115650057Y-60814285D02*
X115745295Y-60766666D01*
X115745295Y-60766666D02*
X115888152Y-60766666D01*
X115888152Y-60766666D02*
X115983390Y-60814285D01*
X115983390Y-60814285D02*
X116031009Y-60861904D01*
X116031009Y-60861904D02*
X116078628Y-60957142D01*
X116078628Y-60957142D02*
X116078628Y-61338094D01*
X115983390Y-60195237D02*
X115935771Y-60290475D01*
X115935771Y-60290475D02*
X115888152Y-60338094D01*
X115888152Y-60338094D02*
X115792914Y-60385713D01*
X115792914Y-60385713D02*
X115745295Y-60385713D01*
X115745295Y-60385713D02*
X115650057Y-60338094D01*
X115650057Y-60338094D02*
X115602438Y-60290475D01*
X115602438Y-60290475D02*
X115554819Y-60195237D01*
X115554819Y-60195237D02*
X115554819Y-60004761D01*
X115554819Y-60004761D02*
X115602438Y-59909523D01*
X115602438Y-59909523D02*
X115650057Y-59861904D01*
X115650057Y-59861904D02*
X115745295Y-59814285D01*
X115745295Y-59814285D02*
X115792914Y-59814285D01*
X115792914Y-59814285D02*
X115888152Y-59861904D01*
X115888152Y-59861904D02*
X115935771Y-59909523D01*
X115935771Y-59909523D02*
X115983390Y-60004761D01*
X115983390Y-60004761D02*
X115983390Y-60195237D01*
X115983390Y-60195237D02*
X116031009Y-60290475D01*
X116031009Y-60290475D02*
X116078628Y-60338094D01*
X116078628Y-60338094D02*
X116173866Y-60385713D01*
X116173866Y-60385713D02*
X116364342Y-60385713D01*
X116364342Y-60385713D02*
X116459580Y-60338094D01*
X116459580Y-60338094D02*
X116507200Y-60290475D01*
X116507200Y-60290475D02*
X116554819Y-60195237D01*
X116554819Y-60195237D02*
X116554819Y-60004761D01*
X116554819Y-60004761D02*
X116507200Y-59909523D01*
X116507200Y-59909523D02*
X116459580Y-59861904D01*
X116459580Y-59861904D02*
X116364342Y-59814285D01*
X116364342Y-59814285D02*
X116173866Y-59814285D01*
X116173866Y-59814285D02*
X116078628Y-59861904D01*
X116078628Y-59861904D02*
X116031009Y-59909523D01*
X116031009Y-59909523D02*
X115983390Y-60004761D01*
X139254819Y-79861904D02*
X140064342Y-79861904D01*
X140064342Y-79861904D02*
X140159580Y-79814285D01*
X140159580Y-79814285D02*
X140207200Y-79766666D01*
X140207200Y-79766666D02*
X140254819Y-79671428D01*
X140254819Y-79671428D02*
X140254819Y-79480952D01*
X140254819Y-79480952D02*
X140207200Y-79385714D01*
X140207200Y-79385714D02*
X140159580Y-79338095D01*
X140159580Y-79338095D02*
X140064342Y-79290476D01*
X140064342Y-79290476D02*
X139254819Y-79290476D01*
X139588152Y-78385714D02*
X140254819Y-78385714D01*
X139207200Y-78623809D02*
X139921485Y-78861904D01*
X139921485Y-78861904D02*
X139921485Y-78242857D01*
X124054819Y-67638094D02*
X124864342Y-67638094D01*
X124864342Y-67638094D02*
X124959580Y-67590475D01*
X124959580Y-67590475D02*
X125007200Y-67542856D01*
X125007200Y-67542856D02*
X125054819Y-67447618D01*
X125054819Y-67447618D02*
X125054819Y-67257142D01*
X125054819Y-67257142D02*
X125007200Y-67161904D01*
X125007200Y-67161904D02*
X124959580Y-67114285D01*
X124959580Y-67114285D02*
X124864342Y-67066666D01*
X124864342Y-67066666D02*
X124054819Y-67066666D01*
X125054819Y-66066666D02*
X125054819Y-66638094D01*
X125054819Y-66352380D02*
X124054819Y-66352380D01*
X124054819Y-66352380D02*
X124197676Y-66447618D01*
X124197676Y-66447618D02*
X124292914Y-66542856D01*
X124292914Y-66542856D02*
X124340533Y-66638094D01*
X124054819Y-65447618D02*
X124054819Y-65352380D01*
X124054819Y-65352380D02*
X124102438Y-65257142D01*
X124102438Y-65257142D02*
X124150057Y-65209523D01*
X124150057Y-65209523D02*
X124245295Y-65161904D01*
X124245295Y-65161904D02*
X124435771Y-65114285D01*
X124435771Y-65114285D02*
X124673866Y-65114285D01*
X124673866Y-65114285D02*
X124864342Y-65161904D01*
X124864342Y-65161904D02*
X124959580Y-65209523D01*
X124959580Y-65209523D02*
X125007200Y-65257142D01*
X125007200Y-65257142D02*
X125054819Y-65352380D01*
X125054819Y-65352380D02*
X125054819Y-65447618D01*
X125054819Y-65447618D02*
X125007200Y-65542856D01*
X125007200Y-65542856D02*
X124959580Y-65590475D01*
X124959580Y-65590475D02*
X124864342Y-65638094D01*
X124864342Y-65638094D02*
X124673866Y-65685713D01*
X124673866Y-65685713D02*
X124435771Y-65685713D01*
X124435771Y-65685713D02*
X124245295Y-65638094D01*
X124245295Y-65638094D02*
X124150057Y-65590475D01*
X124150057Y-65590475D02*
X124102438Y-65542856D01*
X124102438Y-65542856D02*
X124054819Y-65447618D01*
X124054819Y-59561904D02*
X124864342Y-59561904D01*
X124864342Y-59561904D02*
X124959580Y-59514285D01*
X124959580Y-59514285D02*
X125007200Y-59466666D01*
X125007200Y-59466666D02*
X125054819Y-59371428D01*
X125054819Y-59371428D02*
X125054819Y-59180952D01*
X125054819Y-59180952D02*
X125007200Y-59085714D01*
X125007200Y-59085714D02*
X124959580Y-59038095D01*
X124959580Y-59038095D02*
X124864342Y-58990476D01*
X124864342Y-58990476D02*
X124054819Y-58990476D01*
X125054819Y-58466666D02*
X125054819Y-58276190D01*
X125054819Y-58276190D02*
X125007200Y-58180952D01*
X125007200Y-58180952D02*
X124959580Y-58133333D01*
X124959580Y-58133333D02*
X124816723Y-58038095D01*
X124816723Y-58038095D02*
X124626247Y-57990476D01*
X124626247Y-57990476D02*
X124245295Y-57990476D01*
X124245295Y-57990476D02*
X124150057Y-58038095D01*
X124150057Y-58038095D02*
X124102438Y-58085714D01*
X124102438Y-58085714D02*
X124054819Y-58180952D01*
X124054819Y-58180952D02*
X124054819Y-58371428D01*
X124054819Y-58371428D02*
X124102438Y-58466666D01*
X124102438Y-58466666D02*
X124150057Y-58514285D01*
X124150057Y-58514285D02*
X124245295Y-58561904D01*
X124245295Y-58561904D02*
X124483390Y-58561904D01*
X124483390Y-58561904D02*
X124578628Y-58514285D01*
X124578628Y-58514285D02*
X124626247Y-58466666D01*
X124626247Y-58466666D02*
X124673866Y-58371428D01*
X124673866Y-58371428D02*
X124673866Y-58180952D01*
X124673866Y-58180952D02*
X124626247Y-58085714D01*
X124626247Y-58085714D02*
X124578628Y-58038095D01*
X124578628Y-58038095D02*
X124483390Y-57990476D01*
X115757200Y-73833332D02*
X115804819Y-73690475D01*
X115804819Y-73690475D02*
X115804819Y-73452380D01*
X115804819Y-73452380D02*
X115757200Y-73357142D01*
X115757200Y-73357142D02*
X115709580Y-73309523D01*
X115709580Y-73309523D02*
X115614342Y-73261904D01*
X115614342Y-73261904D02*
X115519104Y-73261904D01*
X115519104Y-73261904D02*
X115423866Y-73309523D01*
X115423866Y-73309523D02*
X115376247Y-73357142D01*
X115376247Y-73357142D02*
X115328628Y-73452380D01*
X115328628Y-73452380D02*
X115281009Y-73642856D01*
X115281009Y-73642856D02*
X115233390Y-73738094D01*
X115233390Y-73738094D02*
X115185771Y-73785713D01*
X115185771Y-73785713D02*
X115090533Y-73833332D01*
X115090533Y-73833332D02*
X114995295Y-73833332D01*
X114995295Y-73833332D02*
X114900057Y-73785713D01*
X114900057Y-73785713D02*
X114852438Y-73738094D01*
X114852438Y-73738094D02*
X114804819Y-73642856D01*
X114804819Y-73642856D02*
X114804819Y-73404761D01*
X114804819Y-73404761D02*
X114852438Y-73261904D01*
X114804819Y-72928570D02*
X115804819Y-72690475D01*
X115804819Y-72690475D02*
X115090533Y-72499999D01*
X115090533Y-72499999D02*
X115804819Y-72309523D01*
X115804819Y-72309523D02*
X114804819Y-72071428D01*
X115804819Y-71166666D02*
X115804819Y-71738094D01*
X115804819Y-71452380D02*
X114804819Y-71452380D01*
X114804819Y-71452380D02*
X114947676Y-71547618D01*
X114947676Y-71547618D02*
X115042914Y-71642856D01*
X115042914Y-71642856D02*
X115090533Y-71738094D01*
X142439580Y-75232857D02*
X142487200Y-75280476D01*
X142487200Y-75280476D02*
X142534819Y-75423333D01*
X142534819Y-75423333D02*
X142534819Y-75518571D01*
X142534819Y-75518571D02*
X142487200Y-75661428D01*
X142487200Y-75661428D02*
X142391961Y-75756666D01*
X142391961Y-75756666D02*
X142296723Y-75804285D01*
X142296723Y-75804285D02*
X142106247Y-75851904D01*
X142106247Y-75851904D02*
X141963390Y-75851904D01*
X141963390Y-75851904D02*
X141772914Y-75804285D01*
X141772914Y-75804285D02*
X141677676Y-75756666D01*
X141677676Y-75756666D02*
X141582438Y-75661428D01*
X141582438Y-75661428D02*
X141534819Y-75518571D01*
X141534819Y-75518571D02*
X141534819Y-75423333D01*
X141534819Y-75423333D02*
X141582438Y-75280476D01*
X141582438Y-75280476D02*
X141630057Y-75232857D01*
X142534819Y-74280476D02*
X142534819Y-74851904D01*
X142534819Y-74566190D02*
X141534819Y-74566190D01*
X141534819Y-74566190D02*
X141677676Y-74661428D01*
X141677676Y-74661428D02*
X141772914Y-74756666D01*
X141772914Y-74756666D02*
X141820533Y-74851904D01*
X141534819Y-73375714D02*
X141534819Y-73851904D01*
X141534819Y-73851904D02*
X142011009Y-73899523D01*
X142011009Y-73899523D02*
X141963390Y-73851904D01*
X141963390Y-73851904D02*
X141915771Y-73756666D01*
X141915771Y-73756666D02*
X141915771Y-73518571D01*
X141915771Y-73518571D02*
X141963390Y-73423333D01*
X141963390Y-73423333D02*
X142011009Y-73375714D01*
X142011009Y-73375714D02*
X142106247Y-73328095D01*
X142106247Y-73328095D02*
X142344342Y-73328095D01*
X142344342Y-73328095D02*
X142439580Y-73375714D01*
X142439580Y-73375714D02*
X142487200Y-73423333D01*
X142487200Y-73423333D02*
X142534819Y-73518571D01*
X142534819Y-73518571D02*
X142534819Y-73756666D01*
X142534819Y-73756666D02*
X142487200Y-73851904D01*
X142487200Y-73851904D02*
X142439580Y-73899523D01*
X160786905Y-64419819D02*
X160786905Y-65229342D01*
X160786905Y-65229342D02*
X160834524Y-65324580D01*
X160834524Y-65324580D02*
X160882143Y-65372200D01*
X160882143Y-65372200D02*
X160977381Y-65419819D01*
X160977381Y-65419819D02*
X161167857Y-65419819D01*
X161167857Y-65419819D02*
X161263095Y-65372200D01*
X161263095Y-65372200D02*
X161310714Y-65324580D01*
X161310714Y-65324580D02*
X161358333Y-65229342D01*
X161358333Y-65229342D02*
X161358333Y-64419819D01*
X162358333Y-65419819D02*
X161786905Y-65419819D01*
X162072619Y-65419819D02*
X162072619Y-64419819D01*
X162072619Y-64419819D02*
X161977381Y-64562676D01*
X161977381Y-64562676D02*
X161882143Y-64657914D01*
X161882143Y-64657914D02*
X161786905Y-64705533D01*
X162691667Y-64419819D02*
X163310714Y-64419819D01*
X163310714Y-64419819D02*
X162977381Y-64800771D01*
X162977381Y-64800771D02*
X163120238Y-64800771D01*
X163120238Y-64800771D02*
X163215476Y-64848390D01*
X163215476Y-64848390D02*
X163263095Y-64896009D01*
X163263095Y-64896009D02*
X163310714Y-64991247D01*
X163310714Y-64991247D02*
X163310714Y-65229342D01*
X163310714Y-65229342D02*
X163263095Y-65324580D01*
X163263095Y-65324580D02*
X163215476Y-65372200D01*
X163215476Y-65372200D02*
X163120238Y-65419819D01*
X163120238Y-65419819D02*
X162834524Y-65419819D01*
X162834524Y-65419819D02*
X162739286Y-65372200D01*
X162739286Y-65372200D02*
X162691667Y-65324580D01*
X144757142Y-52354819D02*
X144423809Y-51878628D01*
X144185714Y-52354819D02*
X144185714Y-51354819D01*
X144185714Y-51354819D02*
X144566666Y-51354819D01*
X144566666Y-51354819D02*
X144661904Y-51402438D01*
X144661904Y-51402438D02*
X144709523Y-51450057D01*
X144709523Y-51450057D02*
X144757142Y-51545295D01*
X144757142Y-51545295D02*
X144757142Y-51688152D01*
X144757142Y-51688152D02*
X144709523Y-51783390D01*
X144709523Y-51783390D02*
X144661904Y-51831009D01*
X144661904Y-51831009D02*
X144566666Y-51878628D01*
X144566666Y-51878628D02*
X144185714Y-51878628D01*
X145709523Y-52354819D02*
X145138095Y-52354819D01*
X145423809Y-52354819D02*
X145423809Y-51354819D01*
X145423809Y-51354819D02*
X145328571Y-51497676D01*
X145328571Y-51497676D02*
X145233333Y-51592914D01*
X145233333Y-51592914D02*
X145138095Y-51640533D01*
X146042857Y-51354819D02*
X146661904Y-51354819D01*
X146661904Y-51354819D02*
X146328571Y-51735771D01*
X146328571Y-51735771D02*
X146471428Y-51735771D01*
X146471428Y-51735771D02*
X146566666Y-51783390D01*
X146566666Y-51783390D02*
X146614285Y-51831009D01*
X146614285Y-51831009D02*
X146661904Y-51926247D01*
X146661904Y-51926247D02*
X146661904Y-52164342D01*
X146661904Y-52164342D02*
X146614285Y-52259580D01*
X146614285Y-52259580D02*
X146566666Y-52307200D01*
X146566666Y-52307200D02*
X146471428Y-52354819D01*
X146471428Y-52354819D02*
X146185714Y-52354819D01*
X146185714Y-52354819D02*
X146090476Y-52307200D01*
X146090476Y-52307200D02*
X146042857Y-52259580D01*
X144032142Y-61059580D02*
X143984523Y-61107200D01*
X143984523Y-61107200D02*
X143841666Y-61154819D01*
X143841666Y-61154819D02*
X143746428Y-61154819D01*
X143746428Y-61154819D02*
X143603571Y-61107200D01*
X143603571Y-61107200D02*
X143508333Y-61011961D01*
X143508333Y-61011961D02*
X143460714Y-60916723D01*
X143460714Y-60916723D02*
X143413095Y-60726247D01*
X143413095Y-60726247D02*
X143413095Y-60583390D01*
X143413095Y-60583390D02*
X143460714Y-60392914D01*
X143460714Y-60392914D02*
X143508333Y-60297676D01*
X143508333Y-60297676D02*
X143603571Y-60202438D01*
X143603571Y-60202438D02*
X143746428Y-60154819D01*
X143746428Y-60154819D02*
X143841666Y-60154819D01*
X143841666Y-60154819D02*
X143984523Y-60202438D01*
X143984523Y-60202438D02*
X144032142Y-60250057D01*
X144413095Y-60250057D02*
X144460714Y-60202438D01*
X144460714Y-60202438D02*
X144555952Y-60154819D01*
X144555952Y-60154819D02*
X144794047Y-60154819D01*
X144794047Y-60154819D02*
X144889285Y-60202438D01*
X144889285Y-60202438D02*
X144936904Y-60250057D01*
X144936904Y-60250057D02*
X144984523Y-60345295D01*
X144984523Y-60345295D02*
X144984523Y-60440533D01*
X144984523Y-60440533D02*
X144936904Y-60583390D01*
X144936904Y-60583390D02*
X144365476Y-61154819D01*
X144365476Y-61154819D02*
X144984523Y-61154819D01*
X145317857Y-60154819D02*
X145936904Y-60154819D01*
X145936904Y-60154819D02*
X145603571Y-60535771D01*
X145603571Y-60535771D02*
X145746428Y-60535771D01*
X145746428Y-60535771D02*
X145841666Y-60583390D01*
X145841666Y-60583390D02*
X145889285Y-60631009D01*
X145889285Y-60631009D02*
X145936904Y-60726247D01*
X145936904Y-60726247D02*
X145936904Y-60964342D01*
X145936904Y-60964342D02*
X145889285Y-61059580D01*
X145889285Y-61059580D02*
X145841666Y-61107200D01*
X145841666Y-61107200D02*
X145746428Y-61154819D01*
X145746428Y-61154819D02*
X145460714Y-61154819D01*
X145460714Y-61154819D02*
X145365476Y-61107200D01*
X145365476Y-61107200D02*
X145317857Y-61059580D01*
X162138095Y-60254819D02*
X162138095Y-61064342D01*
X162138095Y-61064342D02*
X162185714Y-61159580D01*
X162185714Y-61159580D02*
X162233333Y-61207200D01*
X162233333Y-61207200D02*
X162328571Y-61254819D01*
X162328571Y-61254819D02*
X162519047Y-61254819D01*
X162519047Y-61254819D02*
X162614285Y-61207200D01*
X162614285Y-61207200D02*
X162661904Y-61159580D01*
X162661904Y-61159580D02*
X162709523Y-61064342D01*
X162709523Y-61064342D02*
X162709523Y-60254819D01*
X163090476Y-60254819D02*
X163709523Y-60254819D01*
X163709523Y-60254819D02*
X163376190Y-60635771D01*
X163376190Y-60635771D02*
X163519047Y-60635771D01*
X163519047Y-60635771D02*
X163614285Y-60683390D01*
X163614285Y-60683390D02*
X163661904Y-60731009D01*
X163661904Y-60731009D02*
X163709523Y-60826247D01*
X163709523Y-60826247D02*
X163709523Y-61064342D01*
X163709523Y-61064342D02*
X163661904Y-61159580D01*
X163661904Y-61159580D02*
X163614285Y-61207200D01*
X163614285Y-61207200D02*
X163519047Y-61254819D01*
X163519047Y-61254819D02*
X163233333Y-61254819D01*
X163233333Y-61254819D02*
X163138095Y-61207200D01*
X163138095Y-61207200D02*
X163090476Y-61159580D01*
X123359580Y-60042857D02*
X123407200Y-60090476D01*
X123407200Y-60090476D02*
X123454819Y-60233333D01*
X123454819Y-60233333D02*
X123454819Y-60328571D01*
X123454819Y-60328571D02*
X123407200Y-60471428D01*
X123407200Y-60471428D02*
X123311961Y-60566666D01*
X123311961Y-60566666D02*
X123216723Y-60614285D01*
X123216723Y-60614285D02*
X123026247Y-60661904D01*
X123026247Y-60661904D02*
X122883390Y-60661904D01*
X122883390Y-60661904D02*
X122692914Y-60614285D01*
X122692914Y-60614285D02*
X122597676Y-60566666D01*
X122597676Y-60566666D02*
X122502438Y-60471428D01*
X122502438Y-60471428D02*
X122454819Y-60328571D01*
X122454819Y-60328571D02*
X122454819Y-60233333D01*
X122454819Y-60233333D02*
X122502438Y-60090476D01*
X122502438Y-60090476D02*
X122550057Y-60042857D01*
X123454819Y-59090476D02*
X123454819Y-59661904D01*
X123454819Y-59376190D02*
X122454819Y-59376190D01*
X122454819Y-59376190D02*
X122597676Y-59471428D01*
X122597676Y-59471428D02*
X122692914Y-59566666D01*
X122692914Y-59566666D02*
X122740533Y-59661904D01*
X122788152Y-58233333D02*
X123454819Y-58233333D01*
X122407200Y-58471428D02*
X123121485Y-58709523D01*
X123121485Y-58709523D02*
X123121485Y-58090476D01*
D12*
%TO.C,C7*%
X176765000Y-77581148D02*
X176765000Y-78103652D01*
X178235000Y-77581148D02*
X178235000Y-78103652D01*
%TO.C,R2*%
X168265000Y-91172936D02*
X168265000Y-91627064D01*
X169735000Y-91172936D02*
X169735000Y-91627064D01*
%TO.C,C22*%
X123190000Y-78921252D02*
X123190000Y-78398748D01*
X124660000Y-78921252D02*
X124660000Y-78398748D01*
%TO.C,C10*%
X160438748Y-91590000D02*
X160961252Y-91590000D01*
X160438748Y-93060000D02*
X160961252Y-93060000D01*
%TO.C,U11*%
X125475000Y-80325000D02*
X125475000Y-73025000D01*
X126625000Y-80325000D02*
X125475000Y-80325000D01*
X130975000Y-80325000D02*
X130975000Y-73025000D01*
%TO.C,J1*%
X168890000Y-63940000D02*
X168890000Y-72560000D01*
X168890000Y-72560000D02*
X176360000Y-72560000D01*
X169750000Y-65000000D02*
X174050000Y-65000000D01*
X169750000Y-65750000D02*
X169750000Y-65000000D01*
X169750000Y-68000000D02*
X169750000Y-67250000D01*
X169750000Y-68500000D02*
X174050000Y-68500000D01*
X169750000Y-69250000D02*
X169750000Y-68500000D01*
X169750000Y-71500000D02*
X169750000Y-70750000D01*
X174050000Y-65000000D02*
X174050000Y-65750000D01*
X174050000Y-65750000D02*
X174400000Y-65750000D01*
X174050000Y-67250000D02*
X174050000Y-68000000D01*
X174050000Y-68000000D02*
X169750000Y-68000000D01*
X174050000Y-68500000D02*
X174050000Y-69250000D01*
X174050000Y-69250000D02*
X174400000Y-69250000D01*
X174050000Y-70750000D02*
X174050000Y-71500000D01*
X174050000Y-71500000D02*
X169750000Y-71500000D01*
X174400000Y-65250000D02*
X175400000Y-65000000D01*
X174400000Y-65750000D02*
X174400000Y-65250000D01*
X174400000Y-67250000D02*
X174050000Y-67250000D01*
X174400000Y-67750000D02*
X174400000Y-67250000D01*
X174400000Y-68750000D02*
X175400000Y-68500000D01*
X174400000Y-69250000D02*
X174400000Y-68750000D01*
X174400000Y-70750000D02*
X174050000Y-70750000D01*
X174400000Y-71250000D02*
X174400000Y-70750000D01*
X175400000Y-65000000D02*
X175400000Y-68000000D01*
X175400000Y-68000000D02*
X174400000Y-67750000D01*
X175400000Y-68500000D02*
X175400000Y-71500000D01*
X175400000Y-71500000D02*
X174400000Y-71250000D01*
X175500000Y-63550000D02*
X176750000Y-63550000D01*
X176360000Y-63940000D02*
X168890000Y-63940000D01*
X176360000Y-72560000D02*
X176360000Y-63940000D01*
X176750000Y-63550000D02*
X176750000Y-65550000D01*
X169750000Y-65750000D02*
G75*
G02*
X169750156Y-67249647I-1700000J-750000D01*
G01*
X169750000Y-69250000D02*
G75*
G02*
X169750156Y-70749647I-1700000J-750000D01*
G01*
%TO.C,R7*%
X116915000Y-67327064D02*
X116915000Y-66872936D01*
X118385000Y-67327064D02*
X118385000Y-66872936D01*
%TO.C,R6*%
X156265000Y-114577064D02*
X156265000Y-114122936D01*
X157735000Y-114577064D02*
X157735000Y-114122936D01*
%TO.C,SW2*%
X117050000Y-52550000D02*
X117050000Y-57450000D01*
X117050000Y-52550000D02*
X117100000Y-52550000D01*
X117050000Y-57450000D02*
X117100000Y-57450000D01*
X120250000Y-52550000D02*
X118750000Y-52550000D01*
X120250000Y-57450000D02*
X118750000Y-57450000D01*
X121950000Y-52550000D02*
X121900000Y-52550000D01*
X121950000Y-52550000D02*
X121950000Y-57450000D01*
X121950000Y-57450000D02*
X121900000Y-57450000D01*
%TO.C,R11*%
X166290000Y-68137936D02*
X166290000Y-68592064D01*
X167760000Y-68137936D02*
X167760000Y-68592064D01*
%TO.C,C21*%
X123190000Y-71021252D02*
X123190000Y-70498748D01*
X124660000Y-71021252D02*
X124660000Y-70498748D01*
%TO.C,U6*%
X133350000Y-57025000D02*
X133350000Y-64325000D01*
X137700000Y-57025000D02*
X138850000Y-57025000D01*
X138850000Y-57025000D02*
X138850000Y-64325000D01*
%TO.C,U1*%
X162512500Y-75640000D02*
X160312500Y-75640000D01*
X162512500Y-75640000D02*
X164712500Y-75640000D01*
X162512500Y-82410000D02*
X160312500Y-82410000D01*
X162512500Y-82410000D02*
X164712500Y-82410000D01*
X166702500Y-82190000D02*
X166372500Y-81950000D01*
X166702500Y-81710000D01*
X166702500Y-82190000D01*
G36*
X166702500Y-82190000D02*
G01*
X166372500Y-81950000D01*
X166702500Y-81710000D01*
X166702500Y-82190000D01*
G37*
%TO.C,C18*%
X139665000Y-50528748D02*
X139665000Y-51051252D01*
X141135000Y-50528748D02*
X141135000Y-51051252D01*
%TO.C,C9*%
X160438748Y-89390000D02*
X160961252Y-89390000D01*
X160438748Y-90860000D02*
X160961252Y-90860000D01*
%TO.C,C13*%
X120365000Y-67341252D02*
X120365000Y-66818748D01*
X121835000Y-67341252D02*
X121835000Y-66818748D01*
%TO.C,R9*%
X119627064Y-76515000D02*
X119172936Y-76515000D01*
X119627064Y-77985000D02*
X119172936Y-77985000D01*
%TO.C,J2*%
X168747500Y-52207500D02*
X168747500Y-60827500D01*
X168747500Y-60827500D02*
X176217500Y-60827500D01*
X169607500Y-53267500D02*
X173907500Y-53267500D01*
X169607500Y-54017500D02*
X169607500Y-53267500D01*
X169607500Y-56267500D02*
X169607500Y-55517500D01*
X169607500Y-56767500D02*
X173907500Y-56767500D01*
X169607500Y-57517500D02*
X169607500Y-56767500D01*
X169607500Y-59767500D02*
X169607500Y-59017500D01*
X173907500Y-53267500D02*
X173907500Y-54017500D01*
X173907500Y-54017500D02*
X174257500Y-54017500D01*
X173907500Y-55517500D02*
X173907500Y-56267500D01*
X173907500Y-56267500D02*
X169607500Y-56267500D01*
X173907500Y-56767500D02*
X173907500Y-57517500D01*
X173907500Y-57517500D02*
X174257500Y-57517500D01*
X173907500Y-59017500D02*
X173907500Y-59767500D01*
X173907500Y-59767500D02*
X169607500Y-59767500D01*
X174257500Y-53517500D02*
X175257500Y-53267500D01*
X174257500Y-54017500D02*
X174257500Y-53517500D01*
X174257500Y-55517500D02*
X173907500Y-55517500D01*
X174257500Y-56017500D02*
X174257500Y-55517500D01*
X174257500Y-57017500D02*
X175257500Y-56767500D01*
X174257500Y-57517500D02*
X174257500Y-57017500D01*
X174257500Y-59017500D02*
X173907500Y-59017500D01*
X174257500Y-59517500D02*
X174257500Y-59017500D01*
X175257500Y-53267500D02*
X175257500Y-56267500D01*
X175257500Y-56267500D02*
X174257500Y-56017500D01*
X175257500Y-56767500D02*
X175257500Y-59767500D01*
X175257500Y-59767500D02*
X174257500Y-59517500D01*
X175357500Y-51817500D02*
X176607500Y-51817500D01*
X176217500Y-52207500D02*
X168747500Y-52207500D01*
X176217500Y-60827500D02*
X176217500Y-52207500D01*
X176607500Y-51817500D02*
X176607500Y-53817500D01*
X169607500Y-54017500D02*
G75*
G02*
X169607656Y-55517147I-1700000J-750000D01*
G01*
X169607500Y-57517500D02*
G75*
G02*
X169607656Y-59017147I-1700000J-750000D01*
G01*
%TO.C,L1*%
X147000000Y-50275000D02*
X150000000Y-50275000D01*
X147000000Y-62875000D02*
X147000000Y-50275000D01*
X150000000Y-62875000D02*
X147000000Y-62875000D01*
X156600000Y-50275000D02*
X159600000Y-50275000D01*
X159600000Y-50275000D02*
X159600000Y-62875000D01*
X159600000Y-62875000D02*
X156600000Y-62875000D01*
%TO.C,C19*%
X123190000Y-55121252D02*
X123190000Y-54598748D01*
X124660000Y-55121252D02*
X124660000Y-54598748D01*
%TO.C,R4*%
X160265000Y-114122936D02*
X160265000Y-114577064D01*
X161735000Y-114122936D02*
X161735000Y-114577064D01*
%TO.C,R5*%
X158265000Y-114122936D02*
X158265000Y-114577064D01*
X159735000Y-114122936D02*
X159735000Y-114577064D01*
%TO.C,R14*%
X150215000Y-99077064D02*
X150215000Y-98622936D01*
X151685000Y-99077064D02*
X151685000Y-98622936D01*
%TO.C,C12*%
X160355000Y-52791252D02*
X160355000Y-52268748D01*
X161825000Y-52791252D02*
X161825000Y-52268748D01*
D13*
%TO.C,Y2*%
X170898000Y-73748000D02*
X170898000Y-85502000D01*
X170898000Y-73748000D02*
X176152000Y-73748000D01*
X170898000Y-85502000D02*
X176152000Y-85502000D01*
X176152000Y-73748000D02*
X176152000Y-85502000D01*
D12*
%TO.C,C2*%
X155265000Y-80038748D02*
X155265000Y-80561252D01*
X156735000Y-80038748D02*
X156735000Y-80561252D01*
%TO.C,C1*%
X153140000Y-80038748D02*
X153140000Y-80561252D01*
X154610000Y-80038748D02*
X154610000Y-80561252D01*
%TO.C,Brd1*%
X113878000Y-85562000D02*
X113878000Y-84210000D01*
X113878000Y-111818000D02*
X113878000Y-113170000D01*
X119974000Y-87370000D02*
X115686000Y-87370000D01*
X119974000Y-87370000D02*
X119974000Y-110010000D01*
X119974000Y-110010000D02*
X115686000Y-110010000D01*
X126324000Y-84102000D02*
X126324000Y-113278000D01*
X141022000Y-84102000D02*
X126324000Y-84102000D01*
X141022000Y-84102000D02*
X141022000Y-113278000D01*
X141022000Y-113278000D02*
X126324000Y-113278000D01*
X146500000Y-81054000D02*
X117036000Y-81054000D01*
X146500000Y-116326000D02*
X117036000Y-116326000D01*
X149658000Y-113168000D02*
X149658000Y-84212000D01*
X113878000Y-84212000D02*
G75*
G02*
X117036000Y-81054000I3158001J-1D01*
G01*
X113878000Y-111816000D02*
G75*
G02*
X115688000Y-110010000I1808000J-2000D01*
G01*
X115688000Y-87370000D02*
G75*
G02*
X113878000Y-85564000I-2000J1808000D01*
G01*
X117036000Y-116326000D02*
G75*
G02*
X113878000Y-113168000I0J3158000D01*
G01*
X146500000Y-81054000D02*
G75*
G02*
X149658000Y-84212000I-1J-3158001D01*
G01*
X149658000Y-113168000D02*
G75*
G02*
X146500000Y-116326000I-3158000J0D01*
G01*
%TO.C,C11*%
X165240000Y-55788748D02*
X165240000Y-57211252D01*
X167960000Y-55788748D02*
X167960000Y-57211252D01*
%TO.C,U2*%
X153380000Y-94880000D02*
X154000000Y-94880000D01*
X153380000Y-97000000D02*
X153380000Y-94880000D01*
X153380000Y-111120000D02*
X153380000Y-109000000D01*
X154000000Y-111120000D02*
X153380000Y-111120000D01*
X170000000Y-94880000D02*
X177620000Y-94880000D01*
X177620000Y-94880000D02*
X177620000Y-111120000D01*
X177620000Y-111120000D02*
X170000000Y-111120000D01*
X170336000Y-94690000D02*
X170000000Y-94450000D01*
X170336000Y-94210000D01*
X170336000Y-94690000D01*
G36*
X170336000Y-94690000D02*
G01*
X170000000Y-94450000D01*
X170336000Y-94210000D01*
X170336000Y-94690000D01*
G37*
%TO.C,C16*%
X139665000Y-66428748D02*
X139665000Y-66951252D01*
X141135000Y-66428748D02*
X141135000Y-66951252D01*
%TO.C,U8*%
X125475000Y-56525000D02*
X125475000Y-49225000D01*
X126625000Y-56525000D02*
X125475000Y-56525000D01*
X130975000Y-56525000D02*
X130975000Y-49225000D01*
%TO.C,R10*%
X119727064Y-49515000D02*
X119272936Y-49515000D01*
X119727064Y-50985000D02*
X119272936Y-50985000D01*
%TO.C,U5*%
X133350000Y-65025000D02*
X133350000Y-72325000D01*
X137700000Y-65025000D02*
X138850000Y-65025000D01*
X138850000Y-65025000D02*
X138850000Y-72325000D01*
%TO.C,C17*%
X139665000Y-58428748D02*
X139665000Y-58951252D01*
X141135000Y-58428748D02*
X141135000Y-58951252D01*
%TO.C,C5*%
X167390000Y-86811252D02*
X167390000Y-86288748D01*
X168860000Y-86811252D02*
X168860000Y-86288748D01*
%TO.C,R12*%
X142890000Y-55839564D02*
X142890000Y-55385436D01*
X144360000Y-55839564D02*
X144360000Y-55385436D01*
%TO.C,J7*%
X153632500Y-87880000D02*
X153632500Y-86550000D01*
X154962500Y-87880000D02*
X153632500Y-87880000D01*
X156232500Y-85220000D02*
X166452500Y-85220000D01*
X156232500Y-87880000D02*
X156232500Y-85220000D01*
X156232500Y-87880000D02*
X166452500Y-87880000D01*
X166452500Y-87880000D02*
X166452500Y-85220000D01*
%TO.C,U7*%
X133350000Y-49125000D02*
X133350000Y-56425000D01*
X137700000Y-49125000D02*
X138850000Y-49125000D01*
X138850000Y-49125000D02*
X138850000Y-56425000D01*
%TO.C,C8*%
X170765000Y-91118748D02*
X170765000Y-91641252D01*
X172235000Y-91118748D02*
X172235000Y-91641252D01*
%TO.C,R8*%
X117015000Y-60827064D02*
X117015000Y-60372936D01*
X118485000Y-60827064D02*
X118485000Y-60372936D01*
%TO.C,C3*%
X168940000Y-75061252D02*
X168940000Y-74538748D01*
X170410000Y-75061252D02*
X170410000Y-74538748D01*
%TO.C,C4*%
X166965000Y-75061252D02*
X166965000Y-74538748D01*
X168435000Y-75061252D02*
X168435000Y-74538748D01*
%TO.C,U4*%
X133350000Y-72925000D02*
X133350000Y-80225000D01*
X137700000Y-72925000D02*
X138850000Y-72925000D01*
X138850000Y-72925000D02*
X138850000Y-80225000D01*
%TO.C,C6*%
X176765000Y-81668852D02*
X176765000Y-81146348D01*
X178235000Y-81668852D02*
X178235000Y-81146348D01*
%TO.C,R3*%
X164265000Y-91172936D02*
X164265000Y-91627064D01*
X165735000Y-91172936D02*
X165735000Y-91627064D01*
%TO.C,U10*%
X125475000Y-72425000D02*
X125475000Y-65125000D01*
X126625000Y-72425000D02*
X125475000Y-72425000D01*
X130975000Y-72425000D02*
X130975000Y-65125000D01*
%TO.C,R1*%
X168852064Y-79915000D02*
X168397936Y-79915000D01*
X168852064Y-81385000D02*
X168397936Y-81385000D01*
%TO.C,U9*%
X125475000Y-64425000D02*
X125475000Y-57125000D01*
X126625000Y-64425000D02*
X125475000Y-64425000D01*
X130975000Y-64425000D02*
X130975000Y-57125000D01*
%TO.C,SW1*%
X116950000Y-70050000D02*
X117000000Y-70050000D01*
X116950000Y-74950000D02*
X116950000Y-70050000D01*
X116950000Y-74950000D02*
X117000000Y-74950000D01*
X118650000Y-70050000D02*
X120150000Y-70050000D01*
X118650000Y-74950000D02*
X120150000Y-74950000D01*
X121850000Y-70050000D02*
X121800000Y-70050000D01*
X121850000Y-74950000D02*
X121800000Y-74950000D01*
X121850000Y-74950000D02*
X121850000Y-70050000D01*
%TO.C,C15*%
X139665000Y-74328748D02*
X139665000Y-74851252D01*
X141135000Y-74328748D02*
X141135000Y-74851252D01*
%TO.C,U13*%
X162025000Y-65805000D02*
X160075000Y-65805000D01*
X162025000Y-65805000D02*
X163975000Y-65805000D01*
X162025000Y-70925000D02*
X160075000Y-70925000D01*
X162025000Y-70925000D02*
X163975000Y-70925000D01*
X159325000Y-65900000D02*
X159085000Y-65570000D01*
X159565000Y-65570000D01*
X159325000Y-65900000D01*
G36*
X159325000Y-65900000D02*
G01*
X159085000Y-65570000D01*
X159565000Y-65570000D01*
X159325000Y-65900000D01*
G37*
%TO.C,R13*%
X144990000Y-55385436D02*
X144990000Y-55839564D01*
X146460000Y-55385436D02*
X146460000Y-55839564D01*
%TO.C,C23*%
X144534420Y-57590000D02*
X144815580Y-57590000D01*
X144534420Y-58610000D02*
X144815580Y-58610000D01*
%TO.C,U3*%
X160477500Y-56625000D02*
X160477500Y-55825000D01*
X160477500Y-56625000D02*
X160477500Y-57425000D01*
X163597500Y-56625000D02*
X163597500Y-55825000D01*
X163597500Y-56625000D02*
X163597500Y-57425000D01*
X160527500Y-57925000D02*
X160197500Y-58165000D01*
X160197500Y-57685000D01*
X160527500Y-57925000D01*
G36*
X160527500Y-57925000D02*
G01*
X160197500Y-58165000D01*
X160197500Y-57685000D01*
X160527500Y-57925000D01*
G37*
%TO.C,C20*%
X123190000Y-63021252D02*
X123190000Y-62498748D01*
X124660000Y-63021252D02*
X124660000Y-62498748D01*
%TO.C,C14*%
X120465000Y-60388748D02*
X120465000Y-60911252D01*
X121935000Y-60388748D02*
X121935000Y-60911252D01*
%TD*%
M02*
